<?xml version="1.0" encoding="UTF-8" standalone="no"?>
<svg
   xmlns:dc="http://purl.org/dc/elements/1.1/"
   xmlns:cc="http://creativecommons.org/ns#"
   xmlns:rdf="http://www.w3.org/1999/02/22-rdf-syntax-ns#"
   xmlns:svg="http://www.w3.org/2000/svg"
   xmlns="http://www.w3.org/2000/svg"
   xmlns:sodipodi="http://sodipodi.sourceforge.net/DTD/sodipodi-0.dtd"
   xmlns:inkscape="http://www.inkscape.org/namespaces/inkscape"
   width="22.624107mm"
   height="22.624107mm"
   viewBox="0 0 22.624107 22.624107"
   version="1.1"
   id="svg2303"
   inkscape:version="1.0.1 (3bc2e813f5, 2020-09-07)"
   sodipodi:docname="holistic.svg">
  <defs
     id="defs2297" />
  <sodipodi:namedview
     id="base"
     pagecolor="#ffffff"
     bordercolor="#666666"
     borderopacity="1.0"
     inkscape:pageopacity="0.0"
     inkscape:pageshadow="2"
     inkscape:zoom="22.4"
     inkscape:cx="42.312266"
     inkscape:cy="24.034215"
     inkscape:document-units="mm"
     inkscape:current-layer="layer1"
     inkscape:document-rotation="0"
     showgrid="false"
     inkscape:snap-page="true" />
  <metadata
     id="metadata2300">
    <rdf:RDF>
      <cc:Work
         rdf:about="">
        <dc:format>image/svg+xml</dc:format>
        <dc:type
           rdf:resource="http://purl.org/dc/dcmitype/StillImage" />
        <dc:title />
      </cc:Work>
    </rdf:RDF>
  </metadata>
  <g
     inkscape:label="Layer 1"
     inkscape:groupmode="layer"
     id="layer1"
     transform="translate(1.457441,-277.48899)">
    <rect
       style="font-variation-settings:normal;vector-effect:none;fill:#000000;fill-opacity:1;stroke:#000000;stroke-width:0.0246327;stroke-linecap:butt;stroke-linejoin:miter;stroke-miterlimit:4;stroke-dasharray:none;stroke-dashoffset:0;stroke-opacity:1;paint-order:fill markers stroke;stop-color:#000000"
       id="rect13"
       width="15.234313"
       height="15.234313"
       x="-203.95682"
       y="201.89569"
       rx="3.1814549"
       ry="3.1814549"
       transform="rotate(-45)" />
    <path
       d="M69.228 40.38c-12.631 0-23.464 9.486-26.593 15.96-2.71 5.603-10.096 10.86-16.075 11.647-12.762 1.681-24.25 3.89-24.25 6.885 0 3.912 16.188 7.278 39.425 8.78a30.37 30.37 0 0 0 55.004-.033c22.96-1.52 37.241-4.35 37.105-8.23-.16-4.598-16.868-6.262-20.984-7.016-8.163-1.494-10.954-4.056-17.56-13.633-6.534-9.47-14.07-14.301-26.072-14.36zm.54 6.71c14.351 0 24.154 14.092 23.379 25.85-5.129 2.465-13.279 4.607-23.602 4.607-10.742 0-19.434-2.325-24.762-4.92.602-15.554 10.633-25.538 24.985-25.538zm28.644 16.817c4.974 6.836 16.984 7.273 17.398 9.5.513 2.758-5.155 3.699-25.332 5.663 15.635-2.558 22.563-3.56 22.046-5.378-.585-2.057-12.839-3.817-14.112-9.785zm-60.464 1.341c-1.266 5.968-13.456 7.728-14.038 9.785-.514 1.818 5.09 2.934 21.801 4.533-18.406-.483-25.579-2.061-25.069-4.819.412-2.227 12.359-2.663 17.306-9.499zm67.236 3.445c.043 0 .162.017.314.04 3.304.43 55.14 7.358-5.042 11.893 32.703-5.618 16.345-8.33 4.728-11.933zm-72.9.144c-7.948 1.926-39.998 6.79 4.24 11.934-29.548-.025-44.227-7.949-4.24-11.934zm68.946 10.626c-22.806 5.56-62.108 1.52-63.005 1.427 2.082.139 46.366.917 63.005-1.427zM48.344 84.02c6.498.305 13.432.47 20.635.47 7.2 0 14.13-.165 20.625-.47a24.227 24.227 0 0 1-41.26 0z"
       fill="#ffffff"
       fill-opacity="1"
       id="path123"
       style="stroke-width:0.0441877" />
    <path
       style="fill:#ffffff;fill-opacity:1;stroke:none;stroke-width:0.0410261;stroke-linecap:square;stroke-miterlimit:4;stroke-dasharray:none;stroke-opacity:1"
       d="m 9.4658306,282.92517 c -1.6575543,0 -3.0791589,1.24484 -3.4897746,2.09442 -0.3556308,0.73527 -1.3248887,1.42515 -2.1095073,1.52842 -1.6747454,0.2206 -3.18230491,0.51048 -3.18230491,0.90351 0,0.51337 2.12433611,0.95509 5.17370601,1.15219 a 3.9854269,3.9854269 0 0 0 7.2181242,-0.005 c 3.01302,-0.19947 4.887102,-0.57085 4.869255,-1.08001 -0.02099,-0.6034 -2.213572,-0.82176 -2.753711,-0.92071 -1.071223,-0.19605 -1.437483,-0.53227 -2.304383,-1.78905 -0.85745,-1.24274 -1.846392,-1.8767 -3.4214044,-1.88445 z m 0.07086,0.88055 c 1.8832684,0 3.1697074,1.84928 3.0680044,3.39227 -0.673074,0.32348 -1.74259,0.60457 -3.0972694,0.60457 -1.4096622,0 -2.5503052,-0.3051 -3.2494937,-0.64565 0.079,-2.04114 1.3953587,-3.35133 3.2787587,-3.35133 z m 3.7589254,2.20688 c 0.652734,0.89708 2.228795,0.95443 2.283124,1.24668 0.06732,0.36192 -0.676486,0.48541 -3.324295,0.74314 2.051766,-0.33568 2.960922,-0.46718 2.893076,-0.70575 -0.07677,-0.26993 -1.68485,-0.5009 -1.851905,-1.28407 z m -7.9346348,0.17597 c -0.166136,0.78318 -1.7658184,1.01414 -1.8421937,1.28408 -0.067451,0.23857 0.667956,0.38502 2.860925,0.59486 -2.4154023,-0.0634 -3.3567084,-0.27046 -3.2897816,-0.63239 0.054066,-0.29225 1.6218601,-0.34947 2.2710503,-1.24655 z m 8.8233188,0.45209 c 0.0057,0 0.02126,0.002 0.04121,0.006 0.433582,0.0564 7.235971,0.96559 -0.661656,1.56071 4.291584,-0.73725 2.144939,-1.09314 0.620451,-1.56596 z m -9.5666002,0.0189 c -1.0430087,0.25275 -5.24890036,0.89104 0.5564112,1.56608 -3.8775565,-0.003 -5.80386803,-1.04313 -0.5564112,-1.56608 z M 13.66542,288.054 c -2.99281,0.72963 -8.1503759,0.19946 -8.2680884,0.18726 0.273219,0.0182 6.0845684,0.12033 8.2680884,-0.18726 z m -6.9401814,0.598 c 0.8527265,0.04 1.7626689,0.0617 2.7079118,0.0617 0.9448496,0 1.8542666,-0.0217 2.7066006,-0.0617 a 3.1792867,3.1792867 0 0 1 -5.4145124,0 z"
       id="path14" />
    <text
       xml:space="preserve"
       style="font-style:normal;font-variant:normal;font-weight:normal;font-stretch:normal;font-size:4.6588px;line-height:1.25;font-family:Aldrich;-inkscape-font-specification:Aldrich;font-variant-ligatures:normal;font-variant-position:normal;font-variant-caps:normal;font-variant-numeric:normal;font-variant-alternates:normal;font-variant-east-asian:normal;font-feature-settings:normal;font-variation-settings:normal;text-indent:0;text-align:start;text-decoration:none;text-decoration-line:none;text-decoration-style:solid;text-decoration-color:#000000;letter-spacing:0px;word-spacing:0px;text-transform:none;writing-mode:lr-tb;direction:ltr;text-orientation:mixed;dominant-baseline:auto;baseline-shift:baseline;text-anchor:start;white-space:normal;shape-padding:0;shape-margin:0;inline-size:0;opacity:1;vector-effect:none;fill:#000000;fill-opacity:1;stroke-width:0.10919;stroke-linecap:butt;stroke-linejoin:miter;stroke-miterlimit:4;stroke-dasharray:none;stroke-dashoffset:0;stroke-opacity:1;stop-color:#000000;stop-opacity:1"
       x="2.2843323"
       y="313.16946"
       id="text15"
       transform="translate(-1.4504576,-13.276414)"><tspan
         sodipodi:role="line"
         id="tspan13"
         x="2.2843323"
         y="313.16946"
         style="font-style:normal;font-variant:normal;font-weight:normal;font-stretch:normal;font-size:4.6588px;line-height:1.25;font-family:Aldrich;-inkscape-font-specification:Aldrich;font-variant-ligatures:normal;font-variant-position:normal;font-variant-caps:normal;font-variant-numeric:normal;font-variant-alternates:normal;font-variant-east-asian:normal;font-feature-settings:normal;font-variation-settings:normal;text-indent:0;text-align:start;text-decoration:none;text-decoration-line:none;text-decoration-style:solid;text-decoration-color:#000000;letter-spacing:0px;word-spacing:0px;text-transform:none;writing-mode:lr-tb;direction:ltr;text-orientation:mixed;dominant-baseline:auto;baseline-shift:baseline;text-anchor:start;white-space:normal;shape-padding:0;shape-margin:0;inline-size:0;vector-effect:none;fill:#000000;fill-opacity:1;stroke-width:0.10919;stroke-linecap:butt;stroke-linejoin:miter;stroke-miterlimit:4;stroke-dasharray:none;stroke-dashoffset:0;stroke-opacity:1;stop-color:#000000;stop-opacity:1">Holistic</tspan></text>
  </g>
</svg>
