<?xml version="1.0" encoding="UTF-8" standalone="no"?>
<svg
   xmlns:dc="http://purl.org/dc/elements/1.1/"
   xmlns:cc="http://creativecommons.org/ns#"
   xmlns:rdf="http://www.w3.org/1999/02/22-rdf-syntax-ns#"
   xmlns:svg="http://www.w3.org/2000/svg"
   xmlns="http://www.w3.org/2000/svg"
   xmlns:sodipodi="http://sodipodi.sourceforge.net/DTD/sodipodi-0.dtd"
   xmlns:inkscape="http://www.inkscape.org/namespaces/inkscape"
   width="22.624107mm"
   height="22.624107mm"
   viewBox="0 0 22.624107 22.624107"
   version="1.1"
   id="svg2303"
   inkscape:version="1.0.1 (3bc2e813f5, 2020-09-07)"
   sodipodi:docname="holistic-embed.svg">
  <defs
     id="defs2297" />
  <sodipodi:namedview
     id="base"
     pagecolor="#ffffff"
     bordercolor="#666666"
     borderopacity="1.0"
     inkscape:pageopacity="0.0"
     inkscape:pageshadow="2"
     inkscape:zoom="15.839192"
     inkscape:cx="46.778674"
     inkscape:cy="37.567441"
     inkscape:document-units="mm"
     inkscape:current-layer="layer1"
     inkscape:document-rotation="0"
     showgrid="false"
     inkscape:snap-page="true" />
  <metadata
     id="metadata2300">
    <rdf:RDF>
      <cc:Work
         rdf:about="">
        <dc:format>image/svg+xml</dc:format>
        <dc:type
           rdf:resource="http://purl.org/dc/dcmitype/StillImage" />
        <dc:title />
      </cc:Work>
    </rdf:RDF>
  </metadata>
  <g
     inkscape:label="Layer 1"
     inkscape:groupmode="layer"
     id="layer1"
     transform="translate(1.457441,-277.48899)">
    <path
       d="M69.228 40.38c-12.631 0-23.464 9.486-26.593 15.96-2.71 5.603-10.096 10.86-16.075 11.647-12.762 1.681-24.25 3.89-24.25 6.885 0 3.912 16.188 7.278 39.425 8.78a30.37 30.37 0 0 0 55.004-.033c22.96-1.52 37.241-4.35 37.105-8.23-.16-4.598-16.868-6.262-20.984-7.016-8.163-1.494-10.954-4.056-17.56-13.633-6.534-9.47-14.07-14.301-26.072-14.36zm.54 6.71c14.351 0 24.154 14.092 23.379 25.85-5.129 2.465-13.279 4.607-23.602 4.607-10.742 0-19.434-2.325-24.762-4.92.602-15.554 10.633-25.538 24.985-25.538zm28.644 16.817c4.974 6.836 16.984 7.273 17.398 9.5.513 2.758-5.155 3.699-25.332 5.663 15.635-2.558 22.563-3.56 22.046-5.378-.585-2.057-12.839-3.817-14.112-9.785zm-60.464 1.341c-1.266 5.968-13.456 7.728-14.038 9.785-.514 1.818 5.09 2.934 21.801 4.533-18.406-.483-25.579-2.061-25.069-4.819.412-2.227 12.359-2.663 17.306-9.499zm67.236 3.445c.043 0 .162.017.314.04 3.304.43 55.14 7.358-5.042 11.893 32.703-5.618 16.345-8.33 4.728-11.933zm-72.9.144c-7.948 1.926-39.998 6.79 4.24 11.934-29.548-.025-44.227-7.949-4.24-11.934zm68.946 10.626c-22.806 5.56-62.108 1.52-63.005 1.427 2.082.139 46.366.917 63.005-1.427zM48.344 84.02c6.498.305 13.432.47 20.635.47 7.2 0 14.13-.165 20.625-.47a24.227 24.227 0 0 1-41.26 0z"
       fill="#ffffff"
       fill-opacity="1"
       id="path123"
       style="stroke-width:0.0441877" />
    <path
       style="fill:#000000;fill-opacity:1;stroke:none;stroke-width:0.0521434;stroke-linecap:square;stroke-miterlimit:4;stroke-dasharray:none;stroke-opacity:1"
       d="m 10.046507,289.45299 c -2.1067199,0 -3.9135519,1.58217 -4.4354366,2.66197 -0.4519999,0.93451 -1.683908,1.81134 -2.6811431,1.94259 -2.12856916,0.28038 -4.0446482,0.64881 -4.0446482,1.14835 0,0.65248 2.6999903,1.2139 6.5756806,1.46441 a 5.0654007,5.0654007 0 0 0 9.1740973,-0.006 c 3.82949,-0.25352 6.211412,-0.72554 6.188729,-1.37267 -0.02668,-0.76691 -2.813407,-1.04444 -3.499913,-1.1702 -1.361504,-0.24918 -1.827014,-0.67651 -2.928827,-2.27385 -1.089802,-1.5795 -2.346728,-2.38525 -4.348539,-2.3951 z m 0.09006,1.11916 c 2.393598,0 4.028637,2.3504 3.899374,4.31151 -0.855464,0.41114 -2.214798,0.7684 -3.936569,0.7684 -1.7916546,0 -3.2413896,-0.38778 -4.1300447,-0.82061 0.1004074,-2.59425 1.7734739,-4.25947 4.1672397,-4.25947 z m 4.777522,2.80491 c 0.829612,1.14017 2.832755,1.21306 2.901806,1.5845 0.08556,0.46 -0.859801,0.61695 -4.225115,0.94452 2.607755,-0.42664 3.763275,-0.59378 3.677044,-0.897 -0.09757,-0.34307 -2.141412,-0.63663 -2.353735,-1.63202 z m -10.0847688,0.22365 c -0.2111556,0.99541 -2.2443211,1.28895 -2.3413926,1.63204 -0.085729,0.30322 0.8489592,0.48935 3.6361805,0.75606 -3.0699298,-0.0806 -4.2663117,-0.34375 -4.181249,-0.80376 0.068717,-0.37144 2.0613529,-0.44417 2.8864611,-1.58434 z m 11.2142688,0.5746 c 0.0072,0 0.02702,0.003 0.05238,0.008 0.551074,0.0717 9.196779,1.22725 -0.840952,1.98364 5.45452,-0.93703 2.726176,-1.38936 0.788581,-1.99031 z m -12.1589651,0.024 c -1.3256439,0.32124 -6.6712511,1.13249 0.7071879,1.99046 -4.92829956,-0.004 -7.3766043,-1.3258 -0.7071879,-1.99046 z m 11.4994781,1.77231 c -3.803803,0.92734 -10.3589708,0.25351 -10.5085811,0.238 0.3472561,0.0231 7.7333701,0.15294 10.5085811,-0.238 z m -8.8208369,0.76004 c 1.0837989,0.0508 2.2403183,0.0784 3.4417039,0.0784 1.200886,0 2.356737,-0.0276 3.440037,-0.0784 a 4.0408121,4.0408121 0 0 1 -6.8817409,0 z"
       id="path14" />
  </g>
</svg>
