<?xml version="1.0" encoding="UTF-8" standalone="no"?>
<svg
   xmlns:dc="http://purl.org/dc/elements/1.1/"
   xmlns:cc="http://creativecommons.org/ns#"
   xmlns:rdf="http://www.w3.org/1999/02/22-rdf-syntax-ns#"
   xmlns:svg="http://www.w3.org/2000/svg"
   xmlns="http://www.w3.org/2000/svg"
   xmlns:sodipodi="http://sodipodi.sourceforge.net/DTD/sodipodi-0.dtd"
   xmlns:inkscape="http://www.inkscape.org/namespaces/inkscape"
   width="22.624107mm"
   height="22.624107mm"
   viewBox="0 0 22.624107 22.624107"
   version="1.1"
   id="svg2303"
   inkscape:version="1.0.1 (3bc2e813f5, 2020-09-07)"
   sodipodi:docname="leader-embed.svg">
  <defs
     id="defs2297" />
  <sodipodi:namedview
     id="base"
     pagecolor="#ffffff"
     bordercolor="#666666"
     borderopacity="1.0"
     inkscape:pageopacity="0.0"
     inkscape:pageshadow="2"
     inkscape:zoom="11.2"
     inkscape:cx="108.00748"
     inkscape:cy="54.702187"
     inkscape:document-units="mm"
     inkscape:current-layer="layer1"
     inkscape:document-rotation="0"
     showgrid="false"
     inkscape:snap-page="true" />
  <metadata
     id="metadata2300">
    <rdf:RDF>
      <cc:Work
         rdf:about="">
        <dc:format>image/svg+xml</dc:format>
        <dc:type
           rdf:resource="http://purl.org/dc/dcmitype/StillImage" />
        <dc:title />
      </cc:Work>
    </rdf:RDF>
  </metadata>
  <g
     inkscape:label="Layer 1"
     inkscape:groupmode="layer"
     id="layer1"
     transform="translate(1.457441,-277.48899)">
    <path
       d="m 9.8546133,283.09552 c -0.715795,0 -1.296077,0.67182 -1.296077,1.50057 5.03e-4,0.61501 0.325133,1.16739 0.819012,1.39376 -0.678791,0.39832 -1.31925,1.54357 -1.31925,2.35766 h 3.5926297 c 0,-0.81373 -0.639955,-1.95826 -1.318315,-2.35712 0.493663,-0.22678 0.817897,-0.77935 0.818078,-1.3943 0,-0.82872 -0.580281,-1.50054 -1.2960777,-1.50054 z m -0.323336,5.93545 v 1.47297 H 2.8489846 v 2.98189 h 0.6466733 v -2.33522 h 6.0356194 v 2.33522 h 0.6466717 v -2.33522 h 6.035619 v 2.33522 h 0.646673 v -2.98189 h -6.682292 v -1.47297 z m -6.358956,5.31709 c -0.7157956,0 -1.2960773,0.67182 -1.2960773,1.50054 5.029e-4,0.61502 0.325133,1.16739 0.8190119,1.39376 -0.6787915,0.39831 -1.3192498,1.5436 -1.3192498,2.35769 h 3.5926303 c 0,-0.81373 -0.6399552,-1.95833 -1.3183158,-2.35715 0.4936634,-0.22681 0.8178983,-0.77932 0.818078,-1.39427 0,-0.8287 -0.5802816,-1.50057 -1.2960773,-1.50053 z m 6.682292,0 c -0.715795,0 -1.296077,0.67182 -1.296077,1.50054 5.03e-4,0.61502 0.325133,1.16739 0.819012,1.39376 -0.678791,0.39831 -1.31925,1.5436 -1.31925,2.35769 h 3.5926297 c 0,-0.81373 -0.639955,-1.95833 -1.318315,-2.35715 0.493663,-0.22681 0.817897,-0.77932 0.818078,-1.39427 0,-0.8287 -0.580281,-1.50057 -1.2960777,-1.50053 z m 6.6822917,0 c -0.715795,0 -1.296077,0.67182 -1.296077,1.50054 5.03e-4,0.61502 0.325132,1.16739 0.819011,1.39376 -0.67879,0.39831 -1.31925,1.5436 -1.31925,2.35769 h 3.59263 c 0,-0.81373 -0.639953,-1.95833 -1.318314,-2.35715 0.493663,-0.22681 0.817898,-0.77932 0.818079,-1.39427 0,-0.8287 -0.580283,-1.50057 -1.296079,-1.50053 z"
       fill="#ffffff"
       fill-opacity="1"
       id="path12"
       style="fill:#000000;stroke-width:0.0359263" />
  </g>
</svg>
