<?xml version="1.0" encoding="UTF-8" standalone="no"?>
<svg
   xmlns:dc="http://purl.org/dc/elements/1.1/"
   xmlns:cc="http://creativecommons.org/ns#"
   xmlns:rdf="http://www.w3.org/1999/02/22-rdf-syntax-ns#"
   xmlns:svg="http://www.w3.org/2000/svg"
   xmlns="http://www.w3.org/2000/svg"
   xmlns:sodipodi="http://sodipodi.sourceforge.net/DTD/sodipodi-0.dtd"
   xmlns:inkscape="http://www.inkscape.org/namespaces/inkscape"
   width="22.624107mm"
   height="22.624107mm"
   viewBox="0 0 22.624107 22.624107"
   version="1.1"
   id="svg2303"
   inkscape:version="1.0.1 (3bc2e813f5, 2020-09-07)"
   sodipodi:docname="logical.svg">
  <defs
     id="defs2297" />
  <sodipodi:namedview
     id="base"
     pagecolor="#ffffff"
     bordercolor="#666666"
     borderopacity="1.0"
     inkscape:pageopacity="0.0"
     inkscape:pageshadow="2"
     inkscape:zoom="7.9195959"
     inkscape:cx="79.241889"
     inkscape:cy="64.18862"
     inkscape:document-units="mm"
     inkscape:current-layer="layer1"
     inkscape:document-rotation="0"
     showgrid="false"
     inkscape:snap-page="true" />
  <metadata
     id="metadata2300">
    <rdf:RDF>
      <cc:Work
         rdf:about="">
        <dc:format>image/svg+xml</dc:format>
        <dc:type
           rdf:resource="http://purl.org/dc/dcmitype/StillImage" />
        <dc:title />
      </cc:Work>
    </rdf:RDF>
  </metadata>
  <g
     inkscape:label="Layer 1"
     inkscape:groupmode="layer"
     id="layer1"
     transform="translate(1.457441,-277.48899)">
    <rect
       style="font-variation-settings:normal;vector-effect:none;fill:#000000;fill-opacity:1;stroke:#000000;stroke-width:0.0246327;stroke-linecap:butt;stroke-linejoin:miter;stroke-miterlimit:4;stroke-dasharray:none;stroke-dashoffset:0;stroke-opacity:1;paint-order:fill markers stroke;stop-color:#000000"
       id="rect13"
       width="15.234313"
       height="15.234313"
       x="-203.55911"
       y="202.27632"
       rx="3.1814549"
       ry="3.1814549"
       transform="rotate(-45)" />
    <g
       class=""
       id="g14"
       transform="matrix(0.02264952,0,0,0.02264952,4.0669386,281.17105)">
      <path
         d="M 53.86,89.17 42.14,102.8 c 17.99,15.4 32.89,31.6 44.81,48.2 H 16 v 18 h 82.58 c 16.32,28.3 24.42,57.7 24.42,87 0,29.3 -8.1,58.7 -24.42,87 H 16 v 18 h 70.95 c -11.92,16.6 -26.82,32.8 -44.81,48.2 l 11.72,13.6 C 76.45,403.4 94.71,382.7 108.6,361 h 19.7 c 3.6,-5.9 6.9,-11.9 9.9,-18 H 119 c 14.6,-28.2 22,-57.5 22,-87 0,-29.5 -7.4,-58.8 -22,-87 h 19.2 c -3,-6.1 -6.3,-12.1 -9.9,-18 H 108.6 C 94.72,129.3 76.45,108.5 53.86,89.17 Z M 116.6,105 c 40,45.9 60.4,98.4 60.4,151 0,52.6 -20.4,105.1 -60.4,151 H 192 c 34.1,0 81.9,-34 119.3,-71.4 18.7,-18.6 35.1,-37.9 46.6,-53.3 5.8,-7.6 10.4,-14.4 13.4,-19.4 1.4,-2.5 2.5,-4.7 3.2,-6.1 0.1,-0.4 0.2,-0.5 0.2,-0.8 0,-0.3 -0.1,-0.5 -0.2,-0.9 -0.6,-1.4 -1.7,-3.5 -3.2,-6 -3,-5.1 -7.5,-11.8 -13.2,-19.5 C 346.8,214.2 330.6,195 312,176.4 274.8,139 227.1,105 192,105 Z m 273.9,142 c 0.2,0.3 0.4,0.7 0.5,1 1.1,2.4 2,4.4 2,8 0,3.6 -1,5.6 -2,8 -0.1,0.3 -0.3,0.7 -0.5,1 H 496 v -18 z"
         fill="#ffffff"
         fill-opacity="1"
         id="path12" />
    </g>
    <text
       xml:space="preserve"
       style="font-style:normal;font-variant:normal;font-weight:normal;font-stretch:normal;font-size:4.6588px;line-height:1.25;font-family:Aldrich;-inkscape-font-specification:Aldrich;font-variant-ligatures:normal;font-variant-position:normal;font-variant-caps:normal;font-variant-numeric:normal;font-variant-alternates:normal;font-variant-east-asian:normal;font-feature-settings:normal;font-variation-settings:normal;text-indent:0;text-align:start;text-decoration:none;text-decoration-line:none;text-decoration-style:solid;text-decoration-color:#000000;letter-spacing:0px;word-spacing:0px;text-transform:none;writing-mode:lr-tb;direction:ltr;text-orientation:mixed;dominant-baseline:auto;baseline-shift:baseline;text-anchor:start;white-space:normal;shape-padding:0;shape-margin:0;inline-size:0;opacity:1;vector-effect:none;fill:#000000;fill-opacity:1;stroke-width:0.10919;stroke-linecap:butt;stroke-linejoin:miter;stroke-miterlimit:4;stroke-dasharray:none;stroke-dashoffset:0;stroke-opacity:1;stop-color:#000000;stop-opacity:1"
       x="21.260469"
       y="339.76279"
       id="text13"
       transform="matrix(0.83645901,0,0,0.83645901,-14.830285,15.109346)"><tspan
         sodipodi:role="line"
         id="tspan11"
         x="21.260469"
         y="339.76279"
         style="font-style:normal;font-variant:normal;font-weight:normal;font-stretch:normal;font-size:4.6588px;line-height:1.25;font-family:Aldrich;-inkscape-font-specification:Aldrich;font-variant-ligatures:normal;font-variant-position:normal;font-variant-caps:normal;font-variant-numeric:normal;font-variant-alternates:normal;font-variant-east-asian:normal;font-feature-settings:normal;font-variation-settings:normal;text-indent:0;text-align:start;text-decoration:none;text-decoration-line:none;text-decoration-style:solid;text-decoration-color:#000000;letter-spacing:0px;word-spacing:0px;text-transform:none;writing-mode:lr-tb;direction:ltr;text-orientation:mixed;dominant-baseline:auto;baseline-shift:baseline;text-anchor:start;white-space:normal;shape-padding:0;shape-margin:0;inline-size:0;vector-effect:none;fill:#000000;fill-opacity:1;stroke-width:0.10919;stroke-linecap:butt;stroke-linejoin:miter;stroke-miterlimit:4;stroke-dasharray:none;stroke-dashoffset:0;stroke-opacity:1;stop-color:#000000;stop-opacity:1">Logical</tspan></text>
  </g>
</svg>
