<?xml version="1.0" encoding="UTF-8" standalone="no"?>
<svg
   xmlns:dc="http://purl.org/dc/elements/1.1/"
   xmlns:cc="http://creativecommons.org/ns#"
   xmlns:rdf="http://www.w3.org/1999/02/22-rdf-syntax-ns#"
   xmlns:svg="http://www.w3.org/2000/svg"
   xmlns="http://www.w3.org/2000/svg"
   xmlns:sodipodi="http://sodipodi.sourceforge.net/DTD/sodipodi-0.dtd"
   xmlns:inkscape="http://www.inkscape.org/namespaces/inkscape"
   width="22.624107mm"
   height="22.624107mm"
   viewBox="0 0 22.624107 22.624107"
   version="1.1"
   id="svg2303"
   inkscape:version="1.0.1 (3bc2e813f5, 2020-09-07)"
   sodipodi:docname="strategic-embed.svg">
  <defs
     id="defs2297" />
  <sodipodi:namedview
     id="base"
     pagecolor="#ffffff"
     bordercolor="#666666"
     borderopacity="1.0"
     inkscape:pageopacity="0.0"
     inkscape:pageshadow="2"
     inkscape:zoom="11.2"
     inkscape:cx="72.726451"
     inkscape:cy="43.102948"
     inkscape:document-units="mm"
     inkscape:current-layer="layer1"
     inkscape:document-rotation="0"
     showgrid="false"
     inkscape:snap-page="true" />
  <metadata
     id="metadata2300">
    <rdf:RDF>
      <cc:Work
         rdf:about="">
        <dc:format>image/svg+xml</dc:format>
        <dc:type
           rdf:resource="http://purl.org/dc/dcmitype/StillImage" />
        <dc:title />
      </cc:Work>
    </rdf:RDF>
  </metadata>
  <g
     inkscape:label="Layer 1"
     inkscape:groupmode="layer"
     id="layer1"
     transform="translate(1.457441,-277.48899)">
    <g
       class=""
       id="g14"
       transform="matrix(0.04757325,0,0,0.04757325,-1.7949726,276.61741)"
       style="fill:#000000">
      <path
         d="m 60.81,476.91 h 300 v -60 h -300 z M 294.6,129.61 308.54,137 c 31.88,-43.62 61.34,-31.85 61.34,-31.85 l -21.62,53 35.64,19 2.87,33 64.42,108.75 -43.55,29.37 c 0,0 -26.82,-36.39 -39.65,-43.66 -10.66,-6 -41.22,-10.25 -56.17,-12 l -67.54,-76.91 -12,10.56 37.15,42.31 c -0.13,0.18 -0.25,0.37 -0.38,0.57 -35.78,58.17 23,105.69 68.49,131.78 H 84.14 C 93,85 294.6,129.61 294.6,129.61 Z"
         fill="#ffffff"
         fill-opacity="1"
         id="path12"
         style="fill:#000000" />
    </g>
  </g>
</svg>
