<?xml version="1.0" encoding="UTF-8" standalone="no"?>
<svg
   xmlns:dc="http://purl.org/dc/elements/1.1/"
   xmlns:cc="http://creativecommons.org/ns#"
   xmlns:rdf="http://www.w3.org/1999/02/22-rdf-syntax-ns#"
   xmlns:svg="http://www.w3.org/2000/svg"
   xmlns="http://www.w3.org/2000/svg"
   xmlns:sodipodi="http://sodipodi.sourceforge.net/DTD/sodipodi-0.dtd"
   xmlns:inkscape="http://www.inkscape.org/namespaces/inkscape"
   width="434.94107mm"
   height="57.828938mm"
   viewBox="0 0 434.94107 57.828938"
   version="1.1"
   id="svg8"
   inkscape:version="1.0.1 (3bc2e813f5, 2020-09-07)"
   sodipodi:docname="iconography.svg">
  <defs
     id="defs2" />
  <sodipodi:namedview
     id="base"
     pagecolor="#ffffff"
     bordercolor="#666666"
     borderopacity="1.0"
     inkscape:pageopacity="0.0"
     inkscape:pageshadow="2"
     inkscape:zoom="0.98994949"
     inkscape:cx="1175.593"
     inkscape:cy="330.75083"
     inkscape:document-units="mm"
     inkscape:current-layer="layer1"
     inkscape:document-rotation="0"
     showgrid="false"
     showguides="true"
     inkscape:guide-bbox="true">
    <sodipodi:guide
       position="222.36825,45.000001"
       orientation="0,-1"
       id="guide119" />
  </sodipodi:namedview>
  <metadata
     id="metadata5">
    <rdf:RDF>
      <cc:Work
         rdf:about="">
        <dc:format>image/svg+xml</dc:format>
        <dc:type
           rdf:resource="http://purl.org/dc/dcmitype/StillImage" />
        <dc:title></dc:title>
      </cc:Work>
    </rdf:RDF>
  </metadata>
  <g
     inkscape:label="Layer 1"
     inkscape:groupmode="layer"
     id="layer1"
     transform="translate(-2.4397819,-38.107195)">
    <text
       xml:space="preserve"
       style="font-size:11.2889px;line-height:1.25;font-family:Aldrich;-inkscape-font-specification:Aldrich;letter-spacing:0px;word-spacing:0px;stroke-width:0.264583"
       x="2.4054224"
       y="46.237629"
       id="text39"><tspan
         sodipodi:role="line"
         id="tspan37"
         x="2.4054224"
         y="46.237629"
         style="stroke-width:0.264583">Theology     Military     Industry     Physics     Art     Farming    Bioengineering</tspan></text>
    <g
       id="g60"
       transform="matrix(0.08789062,0,0,0.08789062,66.435974,50.936132)">
      <rect
         fill="#000000"
         fill-opacity="1"
         height="512"
         width="512"
         rx="48"
         ry="48"
         id="rect43"
         x="0"
         y="0" />
      <g
         class=""
         id="g47">
        <path
           d="m 19.75,14.438 c 59.538,112.29 142.51,202.35 232.28,292.718 l 3.626,3.75 0.063,-0.062 c 21.827,21.93 44.04,43.923 66.405,66.25 -18.856,14.813 -38.974,28.2 -59.938,40.312 l 28.532,28.53 68.717,-68.717 c 42.337,27.636 76.286,63.646 104.094,105.81 l 28.064,-28.06 c -42.47,-27.493 -79.74,-60.206 -106.03,-103.876 l 68.936,-68.938 -28.53,-28.53 c -11.115,21.853 -24.413,42.015 -39.47,60.593 -43.852,-43.8 -86.462,-85.842 -130.125,-125.47 -0.224,-0.203 -0.432,-0.422 -0.656,-0.625 C 183.624,122.75 108.515,63.91 19.75,14.437 Z m 471.875,0 c -83.038,46.28 -154.122,100.78 -221.97,161.156 l 22.814,21.562 56.81,-56.812 13.22,13.187 -56.438,56.44 24.594,23.186 c 61.802,-66.92 117.6,-136.92 160.97,-218.72 z m -329.53,125.906 200.56,200.53 c -4.36,4.443 -8.84,8.793 -13.405,13.032 L 148.875,153.53 Z m -76.69,113.28 -28.5,28.532 68.907,68.906 c -26.29,43.673 -63.53,76.414 -106,103.907 l 28.063,28.06 c 27.807,-42.164 61.758,-78.174 104.094,-105.81 l 68.718,68.717 28.53,-28.53 c -20.962,-12.113 -41.08,-25.5 -59.937,-40.313 17.865,-17.83 35.61,-35.433 53.157,-52.97 l -24.843,-25.655 -55.47,55.467 c -4.565,-4.238 -9.014,-8.62 -13.374,-13.062 l 55.844,-55.844 -24.53,-25.374 c -18.28,17.856 -36.602,36.06 -55.158,54.594 -15.068,-18.587 -28.38,-38.758 -39.5,-60.625 z"
           fill="#ffffff"
           fill-opacity="1"
           id="path45" />
      </g>
    </g>
    <g
       id="g79"
       transform="matrix(0.08789062,0,0,0.08789063,2.4397819,49.348739)">
      <rect
         fill="#000000"
         fill-opacity="1"
         height="512"
         width="512"
         rx="48"
         ry="48"
         id="rect62"
         x="0"
         y="0" />
      <g
         class=""
         id="g66">
        <path
           d="m 261.78,18.063 c -52.004,0 -94.686,45.7 -94.686,103.156 0,57.455 42.682,103.155 94.687,103.155 52.007,0 94.72,-45.7 94.72,-103.156 0,-57.457 -42.713,-103.157 -94.72,-103.157 z M 203,159.655 c 13.276,3.67 26.394,6.046 39.375,7.22 v 18.75 c -14.674,-1.21 -29.464,-3.85 -44.375,-7.97 z m 117.375,0 4.906,18.03 c -14.452,3.938 -29.08,6.583 -43.874,7.845 v -18.718 c 13.085,-1.223 26.055,-3.638 38.97,-7.156 z M 160.22,175.344 c -75.308,50.797 -110.604,125.208 -116.282,220 h 0.218 c -0.367,1.705 -0.562,3.466 -0.562,5.28 0,13.808 11.19,25 25,25 0.22,0 0.436,-0.025 0.656,-0.03 v 0.22 l 179.438,-0.002 V 302.406 c -25.58,4.82 -45.22,28.49 -45.22,62.594 v 9.344 H 103.096 v -18.688 h 12.718 c 3.664,-35.178 26.522,-77.998 45.343,-101.344 l 14.53,11.72 c -15.618,19.373 -36.603,61.664 -40.905,89.624 h 50.47 c 4.04,-42.08 35.168,-72.875 73.22,-72.875 34.98,0 68.653,28.958 73.905,72.876 h 55.75 c -5.412,-28.305 -26.53,-70.32 -42.094,-89.625 l 14.564,-11.717 c 18.885,23.424 41.643,66.485 46.562,101.343 h 10.563 v 18.688 H 314.593 l -0.25,-9.094 c -1.02,-35.656 -23.57,-58.234 -46.97,-62.875 V 425.815 H 448.03 v -0.22 c 0.22,0.006 0.436,0.032 0.658,0.032 13.81,0 25,-11.193 25,-25 0,-2.092 -0.266,-4.12 -0.75,-6.063 -5.566,-92.605 -39.022,-165.662 -111.032,-216.218 -19.026,38.355 -56.592,64.72 -100.125,64.72 -44.662,0 -83.047,-27.74 -101.56,-67.72 z M 140.374,444.5 149.562,492 h 220.562 l 8.47,-47.5 z"
           fill="#ffffff"
           fill-opacity="1"
           id="path64" />
      </g>
    </g>
    <g
       id="g98"
       transform="matrix(0.08789062,0,0,0.08789062,133.78789,50.936132)">
      <rect
         fill="#000000"
         fill-opacity="1"
         height="512"
         width="512"
         rx="48"
         ry="48"
         id="rect81"
         x="0"
         y="0" />
      <g
         class=""
         id="g85">
        <path
           d="m 384,64 0.387,256 H 368 L 272,192 256,320 160,192 144,320 48,192 32,320 V 480 H 480 V 64 H 448 V 320 H 416 V 64 Z M 64,352 h 48 v 32 H 64 Z m 80,0 h 48 v 32 h -48 z m 80,0 h 48 v 32 h -48 z m 80,0 h 48 v 32 H 304 Z M 64,416 h 48 v 32 H 64 Z m 80,0 h 48 v 32 h -48 z m 80,0 h 48 v 32 h -48 z m 80,0 h 48 v 32 h -48 z"
           fill="#ffffff"
           fill-opacity="1"
           id="path83" />
      </g>
    </g>
    <g
       id="g117"
       transform="matrix(0.08789062,0,0,0.08789062,193.42335,50.936132)">
      <rect
         fill="#000000"
         fill-opacity="1"
         height="512"
         width="512"
         rx="48"
         ry="48"
         id="rect100"
         x="0"
         y="0" />
      <g
         class=""
         id="g104">
        <path
           d="m 151.6,14.53 c 6.3,31.6 8.8,64.1 -45.8,78.2 34.3,-9.8 71,-8.8 78.2,45.67 -0.9,-29.8 -25.6,-65.17 45.6,-78.07 -36.6,5.8 -69.6,-0.1 -78,-45.8 z M 457.3,18 334.6,161.2 343,178 l 34.2,-39.4 -9.4,31.7 61.4,-45.3 -47.8,56.4 55.8,-18.8 -42.4,41.2 80.6,-6.7 -75.7,55.8 72,24.4 -53.4,5.1 48.1,20 -41.8,-3.3 32.1,24.3 -51,-20.1 15.4,31 72.9,48.5 V 18 Z M 256,43.88 153.2,249.5 90.46,284.3 31.49,287.1 c 11.23,5.2 19.12,10.6 24.75,16.2 l -44.61,24.8 8.74,15.8 46.07,-25.6 c 3.99,9.5 4.36,19.1 5.55,28.4 L 103.2,297.9 139,278 49.44,457 H 462.6 Z m 0,40.25 51.6,103.17 -129,51.6 z m 59.7,119.37 35.7,71.5 0.7,1.4 -158.2,-24.3 z M 165.1,265.9 362,296.2 433.4,439 H 78.56 Z m -16,75.9 c 0,0 -47.2,80.2 -45.2,83.5 2.3,3.8 67.5,0.9 97.2,-3.3 -53.8,-3.1 -76.1,-38.1 -52,-80.2 z"
           fill="#ffffff"
           fill-opacity="1"
           id="path102" />
      </g>
    </g>
    <g
       id="g138"
       transform="matrix(0.08789062,0,0,0.08789063,247.94634,50.936132)">
      <rect
         fill="#000000"
         fill-opacity="1"
         height="512"
         width="512"
         rx="48"
         ry="48"
         id="rect121"
         x="0"
         y="0" />
      <g
         class=""
         id="g125">
        <path
           d="m 158.3,20.57 c -8.7,0.16 -16.5,1.99 -21.4,5.02 -5.1,3.04 -7.8,6.53 -8.4,13.55 -5.6,53.23 -5.8,112.96 0.1,165.46 1.4,12.8 3.3,25.2 5.5,36.9 3.6,6.4 10.6,11.1 17.4,12.3 4.7,0.9 8.4,0.1 10.3,-1.2 1.8,-1.4 3.4,-3.2 2.8,-9.6 -2.7,-38.2 -7.4,-67.8 -10.4,-151.14 l 18.6,-0.62 c 3,82.76 7.4,111.56 10.4,150.26 0.9,11.1 -3.3,20.9 -10.6,26.1 -7.2,5.3 -16.3,6 -24.6,4.5 -2.6,-0.5 -5,-1.3 -7.6,-2.2 6.4,23.8 14.4,43.3 24,56.2 31.4,42.2 78.1,71 121.9,83.2 40.9,11.3 78.3,7.7 98.5,-9 -6.4,-18.1 -15.4,-29 -41.1,-45.6 l -6.1,-3.9 9.6,-28.6 -47.1,-1.8 33.4,-32.9 -39.5,-22.9 20.7,-6 c 30.4,-9 56.3,-17.3 73,-28 -49.9,-21.6 -79.3,-37.3 -116,-78.3 l -7.6,-8.5 9.7,-5.8 c 11.8,-6.9 15,-13.9 16.6,-22.9 0.9,-5.6 0.8,-12 0.8,-18.57 -9.8,2.7 -21.1,6.87 -31.7,11.87 -21.6,10 -42.4,23.9 -47.1,29.3 l -13.9,-12.4 c 9.8,-11 30.1,-23 53,-33.73 C 260.2,87.54 269,83.72 277.6,80.7 260.9,69.49 229.7,48.45 207.6,33.51 197.6,26.8 176,20.24 158.3,20.57 Z m 3.9,332.33 c -14.2,55.3 -29.6,98.6 -34.5,112.1 14.8,9.2 46.7,17.9 83.7,22.4 38.4,4.4 82.2,5.1 120.7,2.5 -3,-19.3 -0.7,-36.4 4.7,-55.3 -17.5,0.5 -36.4,-2.2 -55.5,-7.4 -42.2,-11.8 -86,-37 -119.1,-74.3 z"
           fill="#ffffff"
           fill-opacity="1"
           id="path123" />
      </g>
    </g>
    <g
       id="g157"
       transform="matrix(0.08789062,0,0,0.08789062,297.65847,50.936132)">
      <rect
         fill="#000000"
         fill-opacity="1"
         height="512"
         width="512"
         rx="48"
         ry="48"
         id="rect140"
         x="0"
         y="0" />
      <g
         class=""
         id="g144">
        <path
           d="m 259.9,22.6 c -8.4,13.1 -16.5,26.3 -20.5,39.2 5.3,4.32 10,8.63 14,13.4 5.9,-3.56 12.1,-6.61 17.7,-9.1 -0.6,-14.5 -5.6,-28.6 -11.2,-43.5 z m -48.8,42.6 c -0.6,5.7 0,12.9 2.2,19.8 9.6,4.87 17.2,10.27 24.7,16.6 2.6,-3.2 4.1,-7.3 2.4,-13.3 C 232.6,78.17 222.1,70.4 211.1,65.2 Z M 45.6,70.8 c 1.2,15.6 2.8,30.9 7.3,43.6 6.93,0 12.96,1.1 19.2,2.3 2.21,-6.2 5.6,-12.4 8.6,-17.9 C 71.5,87.5 59.1,79.3 45.6,70.8 Z m 305,0.5 c -10.2,11.9 -20,23.9 -25.8,36 4.6,5.1 8.8,9.7 12,15.2 6.3,-2.6 12.8,-4.8 18.7,-6.5 1.5,-14.5 -1.4,-29.2 -4.9,-44.7 z m -53.3,6.6 c -12.8,2.1 -24,5.79 -35,13.3 -3.4,5.4 -3,9.8 -1.3,13.7 9,-3.8 19.3,-7.28 28.2,-8.5 4.3,-5.9 6.9,-12.9 8.1,-18.5 z m -176,1.4 c 1.3,15.6 2.7,30.9 7.3,43.6 6.8,0.3 13.2,0.9 19.3,2.3 2.5,-6.4 5.5,-12.6 8.6,-18 C 147.3,96 134.8,87.7 121.3,79.3 Z M 468.8,85 c -13.2,8.5 -26,17.1 -35.1,27.1 2.9,6.2 5.6,11.9 7.1,18 7,-0.8 13.8,-1.1 19.9,-0.9 5.6,-13.4 7,-28.3 8.1,-44.2 z M 104.6,96.8 c -8.21,7.1 -13.83,19.1 -15.6,27.1 0.1,2.4 0.7,4.3 1.4,5.9 6.22,-3.3 13.4,-5.2 19.3,-6 -2.6,-8.9 -4.1,-18 -5.1,-27 z m 79.9,4 c -10.2,10 -17.3,23.1 -19.8,31.6 0.5,6.6 3.5,9.9 7.1,12 4.9,-8.6 11,-17.5 17.4,-24 -0.2,-7.2 -2.2,-14.4 -4.7,-19.6 z m 21.4,1 c -0.3,2.7 -0.2,5 0.3,7.5 7.1,5.9 12.9,14.3 15.4,21.7 3.7,2.6 7.3,5.3 10.5,8 3,-3.2 4.9,-7.5 3.1,-14.1 -7.9,-10.1 -18.4,-17.7 -29.3,-23.1 z m 200.7,1.6 c -2.8,4.9 -5.4,11.7 -6.2,18.9 6.6,8.5 11.6,16.4 15.5,25.4 3.6,-1.8 6.6,-4.8 7.7,-10.9 -1.1,-6.5 -4.1,-13.2 -7,-18.6 -2.9,-5.5 -6.6,-10.8 -10,-14.8 z m -114.5,11.1 c -13.7,2.9 -26.1,6.8 -34.9,13.3 -2.6,4.9 -3.4,10.8 -0.9,15.1 8.5,-3.6 18.1,-6.7 26.4,-8.2 4.4,-5.9 7.9,-13.5 9.4,-20.2 z m 18.2,3.7 c -1,5.2 -3,10.3 -5.5,15.3 4.9,4.3 9.3,8.5 13.2,13.1 3,-2.8 5,-6.7 4.3,-12.8 -2.7,-5.3 -7.7,-11.2 -12,-15.6 z m 56.8,14 c -8.1,1.1 -15.9,3.8 -23.5,7.3 -4.2,5 -4.5,9.5 -3.4,13.6 5.5,-1.7 11,-2.6 16.2,-3.6 2.3,-2.3 4.6,-3.9 7.3,-5.9 0.8,-3.9 1.9,-7.8 3.4,-11.4 z m -334.8,2 c 3,4.8 7.8,10.3 13.7,14.5 10.58,-2 19.99,-2.1 29.8,-1.7 0.1,-4 -1.1,-8.2 -6.1,-12 -11.37,-3.1 -25.19,-3.3 -37.4,-0.8 z m 170.2,-1.1 c -9,8.9 -16.6,21.4 -19.9,31.8 1,5.5 3.9,10.6 8.4,12.5 4.7,-7.9 10.3,-16.3 16.1,-22.4 -0.2,-7.6 -1.8,-15.6 -4.6,-21.9 z m 184.1,1.4 c -3.5,7.3 -5.8,14.1 -6.4,20.9 6.3,8 10.6,15.5 14.6,23.9 5.4,-3.3 7.9,-6.9 8.8,-11.4 -2.9,-12.6 -9.1,-24 -17,-33.4 z m -278.5,8.2 c 2.9,4.8 7.7,10.3 13.6,14.5 10.6,-1.8 20,-2.5 29.8,-1.7 0.2,-4.1 -1.2,-8.3 -6.1,-12.1 -11.4,-3 -25,-3.3 -37.3,-0.7 z m 332.9,6.8 c -5.3,3.8 -5.5,6.6 -5.7,10.8 2.7,0 5.6,0.2 8.4,0.4 7.1,0.7 14.2,1.7 20.8,3.6 6.4,-3.6 11.8,-8.8 15.2,-13.4 -9.7,-3 -27.8,-5.3 -38.7,-1.4 z m -154,3.1 c -12.5,2.3 -26,6.2 -35,13.5 -5,8.2 -1.1,15.9 4,20 6.8,0.3 15.9,-5.5 22.6,-14.6 4.4,-6 7.2,-13.1 8.4,-18.9 z m 17.6,6 c -1.3,5.3 -3.5,10.5 -6.3,15.5 3.1,2.9 6.1,5.8 8.7,8.8 3.4,-2.9 5.9,-6.8 5.1,-13.6 -1.9,-3.7 -4.7,-7.4 -7.5,-10.7 z m -254.3,8 c 3.1,5 8.1,10.7 14.3,14.9 l 0.9,0.6 c 10.08,-1.8 18.95,-2 28.2,-1.6 0.4,-4.4 -0.6,-9 -6,-13.2 -11.43,-3 -25.15,-3.2 -37.4,-0.7 z m 171.1,0 c -10.1,6.6 -17.7,26.1 -19.8,31.7 1.2,9.3 7.2,13.5 15.3,13.7 11.5,-12.3 10.9,-31.2 4.5,-45.4 z m -4.5,45.4 -0.1,0.1 c 0.1,0 0.1,-0.1 0.1,-0.1 z M 366,167.1 c -2.9,5.1 -5.6,12.1 -6.3,19.6 -1.2,11.3 1.7,21.7 7,26 8.7,-1.1 14.5,-3.2 16.3,-12.2 -1.1,-6.4 -4.1,-13.1 -7,-18.6 -2.9,-5.5 -6.6,-10.8 -10,-14.8 z m -21.5,3.4 c -3.6,0.7 -9.8,4 -11.1,4.6 -3.1,4.6 -4.9,10.3 -2.9,14.9 3.9,-1 7.4,-2 11,-2.6 0.5,-5.8 1.6,-12 3,-16.9 z M 126,175.1 c 4.6,6.5 9.8,11.6 15.3,15.5 9.7,-1.5 20,-1.9 28.2,-1.7 0.3,-4.3 -0.7,-9 -6.1,-13.2 -11.4,-3 -25.1,-3.1 -37.4,-0.6 z m 296.5,4.4 c -5.4,4 -7.2,8.2 -7.2,13.4 9.2,0.3 19.2,1.5 27.3,3.6 6.5,-3.8 12.9,-9 17.1,-14.5 -10.6,-5 -27.8,-4.9 -37.2,-2.5 z m -134.9,9.2 c -3.7,4 -7.8,7.5 -12.4,10.2 1.9,8.1 7.4,20.9 14.4,24.1 -1,-0.4 3.7,-0.2 7.1,-3 11.6,-12.9 1.4,-20.8 -9.1,-31.3 z M 69.2,200.1 c 3.1,5 8.1,10.7 14.3,14.9 9.5,6.3 19.9,8.7 26.3,6.1 -1,0.4 2.4,-2.7 2.8,-7.1 0.4,-4.4 -0.7,-9 -6.1,-13.2 -11.37,-3 -25.07,-3.2 -37.3,-0.7 z m 173.9,-0.7 c -0.3,1.5 -0.6,2.9 -1,4.4 l 1.1,137.1 c 6,-0.1 12,-0.2 18,-0.1 l -1,-127.9 c -1,-2.9 -1.8,-5.9 -2.4,-8.8 -5.4,0.2 -11.2,-1.8 -14.7,-4.7 z m 99.7,6.2 c -6.7,0.9 -15.9,4.6 -19.8,6.7 -6.3,8.3 -3.6,15.2 1.1,20.5 10,-0.5 20.1,-6.3 25.3,-12.3 -3.2,-4.4 -5.3,-9.6 -6.6,-14.9 z m -197.9,3 c 3.1,5 8.1,10.7 14.3,14.9 9.4,6.3 20,8.7 26.3,6.1 3.2,-8.3 4,-14.5 -3.2,-20.3 -11.4,-3 -25.2,-3.2 -37.4,-0.7 z m 249.8,16.1 c 0,4.4 3.1,7.8 2.1,7.3 6.1,3.1 16.8,1.7 26.8,-3.9 6.5,-3.6 12,-8.8 15.5,-13.5 -14.4,-3.2 -43.6,-9.5 -44.4,10.1 z m -264.8,-5.1 c -0.6,3.5 -1.7,6.8 -3.5,9.7 20.3,36.9 37.7,77.7 51.6,117.6 5.8,-1 11.9,-1.8 18.2,-2.6 -11.8,-34.7 -26.4,-70.1 -43.3,-103.5 -8.8,-5.6 -17.9,-13.4 -23,-21.2 z m 75.7,9.1 c -0.8,4 -2.3,7.8 -4.7,10.9 8.5,33.8 15,68.2 19.5,102.4 6,-0.5 12,-0.8 18.1,-1 -4.8,-36.8 -11.9,-74 -21.3,-110.5 -3.9,0.4 -7.8,-0.4 -11.6,-1.8 z M 377,230 c -4.2,1.2 -8.4,1.7 -12.5,1 -19.9,35.2 -38,74.2 -51,113.8 6.3,1 12.4,2.1 18.2,3.4 12.4,-37.4 29.5,-74.6 48.5,-108.2 -1.7,-3 -2.7,-6.4 -3.2,-10 z m -72.5,6.6 c -3.8,2.5 -8,4.2 -12.2,4.5 -8.3,32.2 -15.6,66 -21.3,100 6.1,0.2 12.2,0.5 18.1,1 5.5,-33 12.7,-66.1 20.7,-97.5 -2.2,-2.2 -3.9,-5 -5.3,-8 z M 169.9,366.9 c -0.4,11.7 4.7,24.4 16.5,36.2 48,-9.1 97.8,-10 145.1,3.2 12.5,-10 17,-21.1 17.8,-34.6 -56.8,-15.2 -121.5,-16.3 -179.4,-4.8 z m 84.4,47.3 c -9,0 -18,0.5 -27,1.3 1.1,20.1 1.5,40 1.3,59.2 -2.4,-17.8 -6.2,-37.4 -11.2,-58.2 -6,0.7 -12,1.5 -18,2.5 5.6,22.5 9.7,43.6 12,62.1 l 17.2,-2.1 c -0.1,2.8 -0.1,5.6 -0.2,8.4 l 18,0.4 c 0.2,-7 0.3,-14.1 0.3,-21.2 l 12.7,-0.2 c -0.1,7.8 0.1,15.5 0.4,23 l 18,-0.8 c -1,-23 -0.2,-47.7 2,-73.4 -8.5,-0.7 -17,-1 -25.5,-1 z m 42.1,2.9 c -3,21.6 -3.9,42.9 -2.1,63.3 l 18,-1.6 c -1.6,-18.5 -0.8,-38.2 2,-58.4 -5.9,-1.3 -11.9,-2.4 -17.9,-3.3 z"
           fill="#ffffff"
           fill-opacity="1"
           id="path142" />
      </g>
    </g>
    <g
       id="g176"
       transform="matrix(0.08789062,0,0,0.08789063,366.88127,50.936132)">
      <rect
         fill="#000000"
         fill-opacity="1"
         height="512"
         width="512"
         rx="48"
         ry="48"
         id="rect159"
         x="0"
         y="0" />
      <g
         class=""
         id="g163">
        <path
           d="m 415.03,17.563 c -4.89,3.61 -9.423,7.793 -13.5,12.656 -13.096,15.624 -20.828,37.513 -21.436,66.78 -20.397,-11.956 -42.823,-16.838 -64.563,-16.03 -22.81,0.845 -44.876,7.946 -63,19.655 -20.71,13.382 -36.663,33 -42.5,56.625 -4.722,19.12 -2.484,40.57 8.44,62.188 -5.803,-0.375 -11.44,-0.567 -16.907,-0.563 -1.642,0 -3.265,0.027 -4.875,0.063 -38.65,0.848 -68.484,11.434 -87.438,31.906 -22.476,24.275 -27.11,60.72 -14.28,104.406 -25.94,-6.293 -52.112,-5.46 -75.907,5.406 v 40.906 c 5.85,-4.94 13.04,-9.213 21.562,-12.687 h 0.03 l 81.22,55.094 c 0.02,0.76 0.032,1.53 0.03,2.28 -0.014,13.522 -2.952,24.835 -8.78,34.375 l -94.063,-65.03 v 22.717 l 78.907,54.532 h 29.374 c 8.707,-13.213 13.23,-29.072 13.25,-46.563 0.02,-18.367 -4.637,-38.573 -13.813,-60.436 51.663,16.18 97.765,3.348 123.782,-26.344 25.218,-28.78 30.145,-72.742 5.657,-115.875 34.87,5.496 64.61,4.11 88.28,-4.344 l 0.22,0.314 1.092,-0.78 c 8.527,-3.17 16.258,-7.26 23.125,-12.314 25.508,-18.77 36.86,-50.167 33.094,-89.625 28.385,18.706 61.257,21.906 92.314,18.813 V 81.25 L 471.095,17.562 H 415.03 Z m 37.19,2.875 36.53,99.937 c -8.585,0.79 -17.944,0.76 -28,-0.063 L 426.812,32.094 c 7.333,-5.274 15.906,-9.045 25.407,-11.657 z m -39.784,26.312 27.22,70.78 c -12.692,-2.245 -26.26,-5.58 -40.657,-10.155 -1.062,-28.198 4.344,-47.378 13.438,-60.625 z m -75.625,69.688 c 13.4,0.654 28.175,2.68 44.094,6.093 4.365,21.814 4.248,39.968 0.156,54.75 z m -22.906,0.28 58.22,80.032 c -3.88,5.663 -8.634,10.555 -14.25,14.688 -2.198,1.616 -4.555,3.106 -7.063,4.5 l -66.625,-93.313 c 8.662,-3.01 18.59,-5.016 29.718,-5.906 z M 267.093,130.844 333,223.188 c -9.03,2.58 -19.307,4.134 -30.75,4.593 L 247.094,152 c 4.302,-7.57 10.024,-13.915 17.062,-19.094 0.95,-0.7 1.93,-1.403 2.938,-2.062 z m -27.688,42.406 39.313,54.03 c -10.835,-0.848 -22.472,-2.53 -34.876,-5.093 l -0.063,-0.156 -1.53,-0.186 c -0.314,-0.067 -0.623,-0.12 -0.938,-0.188 -0.203,-0.305 -0.394,-0.6 -0.593,-0.906 -3.555,-18.387 -3.9,-34.173 -1.314,-47.5 z m -38.25,64.406 c 8.99,-0.016 18.71,0.588 28.938,1.688 5.57,15.795 8.692,29.98 9.594,42.625 l -46.625,-44.126 c 1.414,-0.063 2.832,-0.123 4.28,-0.156 1.254,-0.03 2.53,-0.03 3.813,-0.032 z m -32.312,2.97 69.5,65.78 c -2.33,11.467 -7.14,21.086 -14.156,28.875 l -86.532,-83.405 c 8.55,-5.023 18.955,-8.837 31.188,-11.25 z m -45.938,22.968 86.625,83.53 c -7.925,4.71 -17.485,8.373 -28.655,10.813 l -71.03,-67.25 -1.47,1.563 c 2.475,-11.374 7.402,-20.933 14.53,-28.656 z m -16.312,49.78 50.437,47.75 c -12.246,0.736 -25.866,0.352 -40.81,-1.28 -6.097,-17.403 -9.2,-32.877 -9.626,-46.47 z m -3.78,65.126 c 7.247,14.534 12.34,28.058 15.436,40.438 L 63.874,382.094 c 11.462,-2.273 24.45,-3.53 38.938,-3.594 z m -83.75,91.563 -0.002,22.03 1.22,0.75 h 35.437 l -36.657,-22.78 z"
           fill="#ffffff"
           fill-opacity="1"
           id="path161" />
      </g>
    </g>
  </g>
</svg>
