<?xml version="1.0" encoding="UTF-8" standalone="no"?>
<svg
   xmlns:dc="http://purl.org/dc/elements/1.1/"
   xmlns:cc="http://creativecommons.org/ns#"
   xmlns:rdf="http://www.w3.org/1999/02/22-rdf-syntax-ns#"
   xmlns:svg="http://www.w3.org/2000/svg"
   xmlns="http://www.w3.org/2000/svg"
   xmlns:sodipodi="http://sodipodi.sourceforge.net/DTD/sodipodi-0.dtd"
   xmlns:inkscape="http://www.inkscape.org/namespaces/inkscape"
   width="875"
   height="1125"
   viewBox="0 0 231.51042 297.65625"
   version="1.1"
   id="svg8"
   inkscape:version="1.0.1 (3bc2e813f5, 2020-09-07)"
   sodipodi:docname="attack.svg">
  <defs
     id="defs2" />
  <sodipodi:namedview
     id="base"
     pagecolor="#ffffff"
     bordercolor="#666666"
     borderopacity="1.0"
     inkscape:pageopacity="0.0"
     inkscape:pageshadow="2"
     inkscape:zoom="1.4"
     inkscape:cx="509.71097"
     inkscape:cy="572.67505"
     inkscape:document-units="in"
     inkscape:current-layer="layer4"
     showgrid="false"
     units="px"
     showguides="true"
     inkscape:guide-bbox="true"
     inkscape:snap-global="true"
     fit-margin-top="0"
     fit-margin-left="0"
     fit-margin-right="0"
     fit-margin-bottom="0"
     inkscape:window-width="3840"
     inkscape:window-height="2066"
     inkscape:window-x="2869"
     inkscape:window-y="-11"
     inkscape:window-maximized="1"
     inkscape:document-rotation="0" />
  <metadata
     id="metadata5">
    <rdf:RDF>
      <cc:Work
         rdf:about="">
        <dc:format>image/svg+xml</dc:format>
        <dc:type
           rdf:resource="http://purl.org/dc/dcmitype/StillImage" />
        <dc:title></dc:title>
      </cc:Work>
    </rdf:RDF>
  </metadata>
  <g
     inkscape:groupmode="layer"
     id="layer4"
     inkscape:label="Consume1"
     style="display:inline"
     transform="translate(-7.7523676,-3.4480656)">
    <g
       class=""
       id="g1507"
       transform="matrix(0.02953893,0,0,0.02953893,56.765615,122.81216)"
       style="fill:#000000">
      <path
         d="M 248,20.3 72.33,132.6 248,128.8 Z m 16,0 v 108.5 l 175.7,3.8 z m 51.4,58.9 c 6.1,3.5 8.2,7.2 15.1,4.2 10.7,0.8 22.3,5.8 27.6,15.7 4.7,4.5 1.5,12.6 -5.2,12.6 -9.7,0.1 -19.7,-6.1 -14.6,-8.3 4.7,-2 14.7,0.9 10,-5.5 -3.6,-4.5 -11,-7.8 -16.3,-5.9 -1.6,6.8 -9.4,4 -12,-0.7 -2.3,-5.8 -9.1,-8.2 -15,-7.9 -6.1,2.7 1.6,8.8 5.3,9.9 7.9,2.2 0.2,7.5 -4.1,5.1 -4.2,-2.4 -15,-9.6 -13.5,-18.3 5.8,-7.39 15.8,-4.62 22.7,-0.9 z M 206.9,75.7 c 5.5,0.5 12.3,3 10.2,9.9 -4.3,7 -9.8,13.1 -18.1,14.8 -6.5,3.4 -14.9,4.4 -21.6,1.9 -3.7,-2.3 -13.5,-9.3 -14.9,-3.4 -2.1,14.8 0.7,13.1 -11.1,17.8 V 92.3 c 9.9,-3.9 21.1,-4.5 30.3,1.3 8,4.2 19.4,1.5 24.2,-5.7 1.4,-6.5 -8.1,-4.6 -12.2,-3.4 -2.7,-8.2 7.9,-7.5 13.2,-8.8 z m 35,69.2 -186.51,4.1 71.21,192.9 z m 28.2,0 115.3,197 L 456.6,149 Z M 256,152.4 138.9,352.6 h 234.2 z m 133.3,21.1 c 13.9,8.3 21.5,26.2 22.1,43 -1.3,13.6 -0.7,19.8 -15.2,21.4 -14.5,1.6 -23.9,-19.2 -29.7,-32.6 -3.4,-9.9 -5.8,-24 1.7,-31.3 6.1,-4.8 15,-4.1 21.1,-0.5 z m -223.7,16.1 c 2.1,4 -0.5,11.4 -4.8,12.1 -4.9,0.7 -3.8,-9.3 -9.4,-11.6 -6.9,-2.3 -13.6,5.6 -15,11.6 10.4,-4 20.3,7.1 20.3,17 -0.4,11.7 -7.9,24.8 -19.7,28.1 h -5.6 c -12.7,-0.7 -18.3,-15.8 -14.2,-26.6 4.4,-15.8 10.8,-33.9 27.2,-40.6 8.5,-3.9 19,3.2 21.2,10 z m 213.9,-8.4 c -7.1,-0.1 -4.4,10 -3.3,14.5 3.5,11.5 7.3,26.6 18.9,30 6.8,-1.2 4.4,-12.8 3.7,-16.5 -4.7,-10.9 -7.1,-23.3 -19.3,-28 z M 52,186 v 173.2 l 61.9,-5.7 z m 408,0 -61.9,167.5 61.9,5.7 z m -117.9,0.7 28.5,63.5 -10,4.4 -20,-43.3 c -6.1,3 -13,8.9 -14.6,-1.4 -1.3,-3.9 8.5,-5.1 8.1,-11.9 -0.3,-6.9 2.2,-12.2 8,-11.3 z m -212,27.4 c -2.4,5.1 -4.1,10.3 -2.7,15.9 1.7,8.8 13.5,6.4 15.6,-0.8 2.7,-5 3.9,-11.7 -0.5,-15.7 -4.1,-3.4 -8.9,-2.8 -12.4,0.6 z m 328.4,41.6 c -0.1,18.6 1.1,39.2 -9.7,55.3 -0.9,1.2 -2.2,1.9 -3.7,2.5 -5.8,-4.1 -3,-11.3 1.2,-15.5 1,7.3 5.5,-2.9 6.6,-5.6 1.3,-3.2 3.6,-17.7 -1,-10.2 0.7,4 -6.8,13.1 -9.3,8.1 -5,-14.4 0,-30.5 7,-43.5 5.7,-6.2 9.9,4.4 8.9,8.9 z M 59.93,245.5 c 0.59,0.1 1.34,1 2.48,3.6 v 61.1 c -7.3,-7 -4.47,-18 -4.45,-26.4 0,-8.4 1.65,-16.3 -1.28,-23.2 -4.62,-1.7 -5.79,-17 -3.17,-12.7 4.41,4.8 4.66,-2.7 6.42,-2.4 z m 178.77,7.6 c 8.1,4.5 13.8,14.4 10.8,23.6 -2.1,15.2 -27,21.1 -30.4,29.7 -1.2,3 25.4,1.6 30.2,1.6 0.5,4 1.5,10.7 -3.8,11.7 -14.5,-1.2 -29.9,-0.6 -45.1,-0.6 0.4,-11.2 7.4,-21.3 17,-26.8 6.9,-4.9 15.4,-9.3 18.1,-17.9 1.8,-4.5 -0.6,-9.3 -4.6,-11.5 -4.2,-2.9 -11,-2.3 -13.2,2.7 -2,3.8 -4.4,9.1 -8.7,9.6 -2.9,0.4 -9,0.5 -7.2,-4.9 1.4,-5.6 3.4,-11.5 8.2,-15.2 8.8,-6.3 19.9,-6.7 28.7,-2 z m 53.3,-1.4 c 6.8,2.2 12,7.9 14.3,14.6 6.1,14.7 5.5,33.1 -4.4,45.9 -4.5,4.8 -10.2,9.1 -17,9.1 -12.5,-0.1 -22.4,-11.1 -24.8,-22.8 -3.1,-13.4 -1.8,-28.7 6.9,-39.8 6.8,-7.6 16,-10.3 25,-7 z m 156.1,8.1 c -1.6,5.9 -3.3,13.4 -0.7,19.3 5.1,-2 5.4,-9.6 6.6,-14.5 0.9,-6.1 -3.5,-12.6 -5.9,-4.8 z m -176.2,21.1 c 0.6,10.5 1.7,22.8 9.7,28.2 4.9,1.8 9.7,-2.2 11.1,-6.7 1.9,-6.3 2.3,-12.9 2.4,-19.4 -0.2,-7.1 -1.5,-15 -6.7,-20.1 -12.2,-4.4 -15.3,10.9 -16.5,18 z M 434,266.8 V 328 l -4.4,6.7 v -42.3 c -4.6,7.5 -9.1,9.1 -6.1,-0.9 6.1,-7.1 4.8,-17.4 10.5,-24.7 z M 83.85,279 c 0.8,3.6 5.12,17.8 2.04,14.8 -1.97,-1.3 -3.62,-4.9 -3.41,-6.1 -1.55,-3 -2.96,-6.1 -4.21,-9.2 -2.95,4 -3.96,8.3 -3.14,13.4 0.2,-1.6 1.18,-2.3 3.39,-0.7 7.84,12.6 12.17,29.1 7.29,43.5 l -2.22,1.1 c -10.36,-5.8 -11.4,-19.4 -13.43,-30 -1.55,-12.3 -0.79,-24.7 2.3,-36.7 5.2,-3.8 9.16,5.4 11.39,9.9 z m -7.05,20.2 c -4.06,4.7 -2.26,12.8 -0.38,18.4 1.11,5.5 6.92,10.2 6.06,1.6 0.69,-11.1 -2.33,-12.7 -5.68,-20 z M 143.2,368.6 256,491.7 368.8,368.6 Z m -21.4,0.3 -53.84,4.9 64.24,41.1 c -2.6,-2.7 -4.9,-5.7 -7.1,-8.8 -5.2,-6.9 -10.5,-13.6 -18.9,-16.6 -8.75,-6.5 -4.2,-5.3 2.9,-2.6 -1,-1.8 -0.7,-2.6 0.1,-2.6 2.2,-0.2 8.4,4.2 9.8,6.3 l 24.7,31.6 65.1,41.7 z m 268.4,0 -42.4,46.3 c 6.4,-3.1 11.3,-8.5 17,-12.4 2.4,-1.4 3.7,-1.9 4.3,-1.9 2.1,0 -5.4,7.1 -7.7,10.3 -9.4,9.8 -16,23 -28.6,29.1 l 18.9,-24.5 c -2.3,1.3 -6,3.2 -8.2,4.1 l -40.3,44 74.5,-47.6 c 5.4,-6.7 1.9,-5.6 -5.7,-0.9 l -11.4,6 c 11.4,-13.7 30.8,-28.3 40,-35.6 9.2,-7.3 15.9,-9.8 8.2,-1.5 l -12.6,16 c 10,-7.6 0.9,3.9 -4.5,5.5 -0.7,1 -1.4,2 -2.2,2.9 L 444,373.8 Z M 236,385.8 v 43.4 h -13.4 v -30 c -5,-1.4 -10.4,1.7 -15.3,-0.3 -3.8,-2.9 1,-6.8 4.5,-5.9 3.3,-0.1 7.6,0.2 9.3,-3.2 4.4,-4.5 9.6,-4.4 14.9,-4 z m 29,0.5 c 12.1,1.2 24.2,0.6 36.6,0.6 1.5,3 0.8,7.8 -3.3,7.9 -7.7,0.3 -21,-1.6 -25.9,0.6 -8.2,10.5 5.7,3.8 11.4,5.2 7,1.1 15,2.9 19.1,9.2 2.1,3.1 2.7,7.3 0.7,10.7 -5.8,6.8 -17,11.5 -25.3,10.9 -7.3,-0.6 -15.6,-1.1 -20.6,-7.1 -6.4,-10.6 10.5,-6.7 12.2,-3.2 6,5.3 20.3,1.9 20.7,-4.7 0.6,-4.2 -2.1,-6.3 -6.9,-7.8 -4.8,-1.5 -12.6,1 -17.3,1.8 -4.7,0.8 -9.6,0.5 -9,-4.4 0.8,-4.2 2.7,-8.1 2.7,-12.5 0.1,-3 1.7,-7 4.9,-7.2 z m 133.5,5 c -0.2,-0.2 -7,5.8 -9.9,8.1 l -15.8,13.1 c 10.6,-6.5 19.3,-12 25.7,-21.2 z m -247,14.2 c 2.4,0 7.5,4.6 9.4,7 l 26.1,31.1 c -7.7,-2.1 -13.3,-7.1 -17.6,-13.7 -6.5,-7.3 -11.3,-16.6 -21.2,-19.6 -9,-5 -5.2,-6.4 2.1,-2.2 -0.3,-1.9 0.2,-2.6 1.2,-2.6 z"
         fill="#ffffff"
         fill-opacity="1"
         id="path1505"
         style="fill:#000000" />
    </g>
    <g
       class=""
       id="g1526"
       transform="matrix(0.0301297,0,0,0.0301297,56.614378,143.54396)"
       style="fill:#000000">
      <path
         d="M 450.169,181.354 379.685,84.29 265.629,47.325 v 92.652 l 96.384,70.031 z m -91.46,-28.416 a 19.735,19.735 0 0 1 -3.004,6.606 16.563,16.563 0 0 1 -11.924,6.857 q -7.548,0.918 -15.729,-5.056 -8.18,-5.974 -9.599,-13.439 a 16.563,16.563 0 0 1 2.922,-13.414 19.747,19.747 0 0 1 5.378,-4.866 q 3.422,-2.206 9.026,-1.574 a 18.757,18.757 0 0 1 -1.717,-10.421 21.082,21.082 0 0 1 4.03,-9.802 19.246,19.246 0 0 1 13.666,-7.99 q 8.633,-1.108 17.779,5.57 9.146,6.677 10.326,14.952 a 20.033,20.033 0 0 1 -3.827,15.204 20.772,20.772 0 0 1 -8.145,6.797 16.312,16.312 0 0 1 -10.17,1.192 q 2.038,5.461 0.989,9.384 z m -10.731,-8.287 a 8.252,8.252 0 0 1 -1.717,6.189 8.907,8.907 0 0 1 -15.669,-3.685 8.562,8.562 0 0 1 1.908,-6.367 8.347,8.347 0 0 1 5.33,-3.578 8.252,8.252 0 0 1 6.451,1.825 8.347,8.347 0 0 1 3.757,5.628 z m 9.54,-11.77 a 10.732,10.732 0 0 1 -11.472,-8.346 q -0.548,-3.709 2.504,-7.894 a 10.851,10.851 0 0 1 6.654,-4.77 10.732,10.732 0 0 1 11.543,8.43 10.851,10.851 0 0 1 -2.469,7.775 q -2.945,4.198 -6.653,4.806 z M 246.55,139.977 V 47.325 L 132.494,84.29 62.01,181.354 l 88.156,28.618 z m -112.66,-21.798 37.895,-26.52 a 31.73,31.73 0 0 1 5.056,12.664 q 1.55,7.155 -2.79,19.413 a 98.304,98.304 0 0 0 -4.341,14.524 13.904,13.904 0 0 0 2.158,10.314 10.732,10.732 0 0 0 6.034,4.472 8.347,8.347 0 0 0 7.154,-1.574 q 4.961,-3.47 4.162,-8.43 a 22.418,22.418 0 0 0 -3.577,-7.644 l 10.577,-7.393 q 4.674,7.25 5.425,13.2 1.443,11.328 -9.682,19.079 -8.789,6.153 -17.386,4.913 -8.597,-1.24 -14.214,-9.242 a 21.237,21.237 0 0 1 -3.97,-13.486 44.513,44.513 0 0 1 3.112,-12.568 l 2.194,-6.141 q 2.063,-5.76 2.659,-8.12 a 15.025,15.025 0 0 0 0.43,-4.77 l -24.16,16.908 z m 64.7,215.412 h 114.998 l 35.51,-109.37 -93.009,-67.598 -93.009,67.599 z m 89.266,-95.072 a 8.347,8.347 0 0 0 -6.797,-2.838 q -6.058,0 -8.24,4.52 a 22.382,22.382 0 0 0 -1.49,8.346 h -12.855 q 0.322,-8.62 3.124,-13.927 5.319,-10.112 18.889,-10.112 10.731,0 17.063,5.962 6.332,5.962 6.237,15.633 a 21.25,21.25 0 0 1 -4.484,13.32 44.585,44.585 0 0 1 -9.659,8.62 l -5.318,3.769 q -4.996,3.577 -6.832,5.127 a 15,15 0 0 0 -3.1,3.685 h 29.488 v 11.685 h -46.207 a 31.73,31.73 0 0 1 3.125,-13.271 q 2.838,-6.75 13.414,-14.31 a 98.602,98.602 0 0 0 11.925,-9.408 13.916,13.916 0 0 0 4.15,-9.682 10.732,10.732 0 0 0 -2.433,-7.13 z m -79.607,-1.812 a 58.536,58.536 0 0 0 8.776,-0.835 12.377,12.377 0 0 0 6.511,-3.577 11.686,11.686 0 0 0 2.6,-4.842 11.125,11.125 0 0 0 0.512,-2.707 h 11.09 v 67.54 H 224.132 V 245.733 H 208.25 v -9.038 z m -11.781,115.963 -54.434,75.04 114.055,36.965 114.056,-36.965 -54.434,-75.04 z m 77.27,83.792 q -5.64,7.226 -17.517,7.214 -12.76,0 -18.817,-10.672 -4.71,-8.347 -4.71,-21.464 a 97.78,97.78 0 0 1 0.656,-12.58 38.444,38.444 0 0 1 4.52,-14.309 23.121,23.121 0 0 1 7.571,-7.87 20.414,20.414 0 0 1 11.197,-2.981 q 9.408,0 15,4.77 a 18.328,18.328 0 0 1 6.285,12.83 h -13.165 a 6.773,6.773 0 0 0 -1.252,-3.577 7.286,7.286 0 0 0 -6.475,-3.172 q -6.474,0 -9.217,7.262 a 45.062,45.062 0 0 0 -2.051,11.829 14.905,14.905 0 0 1 5.724,-4.281 20.975,20.975 0 0 1 22.19,4.77 21.833,21.833 0 0 1 5.748,15.609 26.34,26.34 0 0 1 -5.64,16.61 z M 263.006,411.85 q 2.885,3.148 2.885,9.063 a 13.868,13.868 0 0 1 -2.54,8.645 8.275,8.275 0 0 1 -6.963,3.327 9.36,9.36 0 0 1 -7.453,-3.446 13.248,13.248 0 0 1 -2.862,-8.884 q 0,-6.75 3.911,-9.778 a 9.456,9.456 0 0 1 5.962,-2.05 9.241,9.241 0 0 1 7.131,3.111 z m 119.147,-112.195 27.879,8.347 -4.77,16.157 z m -14.31,-71.546 -36.81,113.28 54.483,74.993 L 456,319.366 V 199.503 Z m 66.073,86.952 -13.927,-4.162 -7.656,25.614 -11.113,-3.315 -32.196,-35.523 4.27,-14.309 40.434,12.08 2.183,-7.322 9.956,2.97 -2.182,7.32 13.928,4.162 z M 144.156,228.109 56,199.491 v 119.934 l 70.484,97.016 54.482,-74.992 z m -71.616,58.131 44.43,-14 -4.77,-15.143 8.621,-2.719 a 58.536,58.536 0 0 0 3.435,8.12 12.377,12.377 0 0 0 5.33,5.14 11.686,11.686 0 0 0 5.401,1.026 11.137,11.137 0 0 0 2.731,-0.322 l 3.327,10.576 -64.391,20.272 z m 18.47,58.596 -4.09,-12.974 44.43,-13.999 -4.77,-15.144 8.622,-2.718 a 58.68,58.68 0 0 0 3.434,8.12 12.365,12.365 0 0 0 5.33,5.14 11.65,11.65 0 0 0 5.402,1.025 11.102,11.102 0 0 0 2.73,-0.322 l 3.328,10.577 z"
         fill="#ffffff"
         fill-opacity="1"
         id="path1524"
         style="fill:#000000" />
    </g>
    <g
       class=""
       id="g1545"
       transform="matrix(0.03274967,0,0,0.03274967,55.943666,162.00278)"
       style="fill:#000000">
      <path
         d="M 256,37.143 77.896,343.853 H 434.104 Z M 230.154,49.79 72,164.233 v 157.91 z m 51.69,0 L 440,322.144 V 164.232 Z m -132.516,90.02 v 21.786 l -8.486,9.68 v -16.942 c -2.772,3.24 -5.692,6.367 -8.385,9.664 3.536,0.293 2.484,5.43 2.207,7.752 -1.746,9.536 -8.154,17.575 -13.404,24.79 -1.943,2.544 -3.943,5.075 -6.008,7.507 -4.65,3.4 -8.49,4.39 -10.775,-1.463 0.294,-7.806 3.84,-15.22 8.046,-20.967 l 5.288,-7.918 c -0.048,2.462 0.1,4.97 -0.072,7.405 -2.34,4.347 -6.766,9.46 -5.758,14.608 7.76,0.874 12.22,-10.863 14.522,-16.58 0.832,-2.76 2.108,-5.458 -1.418,-5.434 v -7.264 z m 212.13,1.21 44.853,54.464 v 7.262 l -30.304,-36.31 v 8.472 l -6.06,-7.262 c -0.155,-4.15 -1.424,-8.377 -2.425,-12.103 -1.86,-2.936 -3.96,-5.704 -6.06,-8.47 z M 256.07,203.86 c 8.37,0 14.733,1.53 19.088,4.587 4.355,3.027 6.533,7.475 6.533,13.344 0,3.924 -1.08,7.198 -3.243,9.823 -2.13,2.626 -5.297,4.572 -9.498,5.838 4.694,1.298 8.23,3.415 10.61,6.35 2.408,2.902 3.614,6.576 3.614,11.024 0,6.857 -2.286,12.047 -6.858,15.57 -4.54,3.49 -11.288,5.233 -20.246,5.233 -8.988,0 -15.784,-1.744 -20.386,-5.234 -4.572,-3.522 -6.858,-8.712 -6.858,-15.57 0,-4.447 1.19,-8.12 3.57,-11.024 2.408,-2.935 5.96,-5.052 10.655,-6.35 -4.2,-1.265 -7.366,-3.21 -9.497,-5.837 -2.13,-2.625 -3.198,-5.9 -3.198,-9.822 0,-5.837 2.18,-10.285 6.534,-13.343 4.354,-3.058 10.748,-4.586 19.18,-4.586 z m 0,11.212 c -2.84,0 -5.035,0.742 -6.58,2.225 -1.513,1.482 -2.27,3.583 -2.27,6.3 0,2.75 0.757,4.866 2.27,6.348 1.545,1.483 3.74,2.225 6.58,2.225 2.78,0 4.926,-0.742 6.44,-2.225 1.513,-1.482 2.27,-3.598 2.27,-6.347 0,-2.75 -0.757,-4.85 -2.27,-6.3 -1.514,-1.484 -3.66,-2.226 -6.44,-2.226 z m 0,28.262 c -3.336,0 -5.9,0.912 -7.69,2.734 -1.793,1.823 -2.69,4.433 -2.69,7.83 0,3.398 0.897,6.008 2.69,7.83 1.79,1.792 4.354,2.688 7.69,2.688 3.305,0 5.837,-0.896 7.598,-2.687 1.76,-1.824 2.64,-4.434 2.64,-7.832 0,-3.428 -0.88,-6.038 -2.64,-7.83 -1.76,-1.822 -4.293,-2.734 -7.598,-2.734 z M 88.7,359.852 256,480.912 423.3,359.852 Z m 139.42,23.23 h 54.548 v 4.842 c -14.406,5.942 -21.582,12.897 -27.88,25.416 h -15.76 c 7.104,-13.803 14.546,-17.714 26.67,-25.416 h -37.58 z"
         fill="#ffffff"
         fill-opacity="1"
         id="path1543"
         style="fill:#000000" />
    </g>
    <path
       d="m 64.318151,184.77123 c -0.19583,0 -0.39168,0.0439 -0.54336,0.13165 l -4.84335,2.80163 c -0.30344,0.17554 -0.30344,0.4531 0,0.62863 l 4.84335,2.80163 c 0.30343,0.17553 0.78326,0.17553 1.08666,0 l 4.84334,-2.80163 c 0.30344,-0.1755 0.30344,-0.45309 0,-0.62859 l -4.84334,-2.80164 c -0.15172,-0.0878 -0.34751,-0.13168 -0.5433,-0.13168 z m 0.059,0.3939 a 1.0131353,0.60116559 0 0 1 0.672,0.17553 1.0131353,0.60116559 0 0 1 -1.43274,0.85013 1.0131353,0.60116559 0 0 1 0.76071,-1.02563 z m 1.85264,1.11634 a 1.0131353,0.60116559 0 0 1 0.70169,1.02614 1.0131527,0.60117595 0 0 1 -1.43285,-0.85017 1.0131353,0.60116559 0 0 1 0.73116,-0.17597 z m -5.63126,1.10911 a 1.0131353,0.60116559 0 0 1 6e-5,0 1.0131353,0.60116559 0 0 1 0.67203,0.1755 1.0131454,0.60117165 0 0 1 -1.43284,0.85016 1.0131353,0.60116559 0 0 1 0.76072,-1.02566 z m 7.54321,0.008 a 1.0131353,0.60116559 0 0 1 5e-5,0 1.0131353,0.60116559 0 0 1 0.67204,0.1755 1.0131353,0.60116559 0 0 1 -1.43284,0.85013 1.0131353,0.60116559 0 0 1 0.76075,-1.02563 z m -5.67652,1.1164 a 1.0131353,0.60116559 0 0 1 0.70158,1.02611 1.0131353,0.60116559 0 1 1 -1.43274,-0.85013 1.0131353,0.60116559 0 0 1 0.73116,-0.17598 z m -3.85716,0.34862 c -0.18241,-0.005 -0.30642,0.13749 -0.30642,0.38937 v 5.00007 c 0,0.35043 0.24003,0.76614 0.54346,0.94138 l 4.65872,2.69028 c 0.30343,0.17522 0.543451,0.0366 0.543451,-0.31373 v -5.00018 c 0,-0.35042 -0.240021,-0.76604 -0.543451,-0.94131 l -4.65872,-2.69026 c -0.0853,-0.0493 -0.16567,-0.0737 -0.23704,-0.0757 z m 11.43905,7e-5 c -0.0713,0.002 -0.15166,0.0264 -0.23698,0.0756 l -4.65888,2.69026 c -0.303439,0.17524 -0.543449,0.59095 -0.543449,0.94138 v 5.00019 c 0,0.35037 0.24001,0.48887 0.54345,0.31358 l 4.65891,-2.69014 c 0.30343,-0.17525 0.54336,-0.5909 0.54336,-0.94133 v -5.00019 c 0,-0.25182 -0.12397,-0.39419 -0.30641,-0.3893 z m -11.00698,0.69527 a 0.99040125,0.57098048 58.094 0 1 1.07227,1.30579 0.99040261,0.57098126 58.094 1 1 -1.42682,-0.82375 0.99040125,0.57098048 58.094 0 1 0.35455,-0.48204 z m 10.57493,0 a 0.57098048,0.99040125 31.906 0 1 0.35458,0.48204 0.57098048,0.99040125 31.906 0 1 -1.42681,0.82375 0.57098048,0.99040125 31.906 0 1 1.07226,-1.30579 z m -5.23794,0.0734 a 1.0131353,0.60116559 0 0 1 0.672,0.1755 1.0131353,0.60116559 0 0 1 -1.43274,0.85012 1.0131353,0.60116559 0 0 1 0.76071,-1.02566 z m -1.78583,1.97693 a 0.99040125,0.57098048 58.094 0 1 1.07226,1.30579 0.99040125,0.57098048 58.094 1 1 -1.42681,-0.82375 0.99040125,0.57098048 58.094 0 1 0.35455,-0.48204 z m 3.472551,0 a 0.57098048,0.99040125 31.906 0 1 0.35461,0.48204 0.57098048,0.99040125 31.906 0 1 -1.426811,0.82375 0.57098048,0.99040125 31.906 0 1 1.07226,-1.30579 z m -5.24814,0.90891 a 0.99040125,0.57098048 58.094 0 1 1.07226,1.30579 0.99040125,0.57098048 58.094 0 1 -1.426811,-0.82374 0.99040125,0.57098048 58.094 0 1 0.354551,-0.48205 z m -1.77554,0.93156 a 0.99040125,0.57098048 58.094 0 1 1.07227,1.30582 0.99040261,0.57098126 58.094 1 1 -1.42682,-0.82375 0.99040125,0.57098048 58.094 0 1 0.35455,-0.48207 z m 10.57493,0 a 0.57098048,0.99040125 31.906 0 1 0.35455,0.48207 0.57098048,0.99040125 31.906 0 1 -1.42681,0.82375 0.57098048,0.99040125 31.906 0 1 1.07226,-1.30582 z m -7.023741,2.05027 a 0.99040125,0.57098048 58.094 0 1 1.07227,1.30579 0.99040261,0.57098126 58.094 1 1 -1.42682,-0.82375 0.99040125,0.57098048 58.094 0 1 0.35455,-0.48204 z m 3.47255,0 a 0.57098048,0.99040125 31.906 0 1 0.354551,0.48204 0.57098048,0.99040125 31.906 0 1 -1.426811,0.82375 0.57098048,0.99040125 31.906 0 1 1.07226,-1.30579 z"
       fill="#ffffff"
       fill-opacity="1"
       id="path1562"
       style="fill:#000000;stroke-width:0.031707" />
  </g>
</svg>
