<?xml version="1.0" encoding="UTF-8" standalone="no"?>
<svg
   xmlns:dc="http://purl.org/dc/elements/1.1/"
   xmlns:cc="http://creativecommons.org/ns#"
   xmlns:rdf="http://www.w3.org/1999/02/22-rdf-syntax-ns#"
   xmlns:svg="http://www.w3.org/2000/svg"
   xmlns="http://www.w3.org/2000/svg"
   xmlns:sodipodi="http://sodipodi.sourceforge.net/DTD/sodipodi-0.dtd"
   xmlns:inkscape="http://www.inkscape.org/namespaces/inkscape"
   width="210mm"
   height="297mm"
   viewBox="0 0 210 297"
   version="1.1"
   id="svg1628"
   inkscape:version="1.0.1 (3bc2e813f5, 2020-09-07)"
   sodipodi:docname="reasons-to-resources.svg">
  <defs
     id="defs1622" />
  <sodipodi:namedview
     id="base"
     pagecolor="#ffffff"
     bordercolor="#666666"
     borderopacity="1.0"
     inkscape:pageopacity="0.0"
     inkscape:pageshadow="2"
     inkscape:zoom="0.35"
     inkscape:cx="1148.5714"
     inkscape:cy="991.42857"
     inkscape:document-units="mm"
     inkscape:current-layer="layer1"
     inkscape:document-rotation="0"
     showgrid="false" />
  <metadata
     id="metadata1625">
    <rdf:RDF>
      <cc:Work
         rdf:about="">
        <dc:format>image/svg+xml</dc:format>
        <dc:type
           rdf:resource="http://purl.org/dc/dcmitype/StillImage" />
        <dc:title></dc:title>
      </cc:Work>
    </rdf:RDF>
  </metadata>
  <g
     inkscape:label="Layer 1"
     inkscape:groupmode="layer"
     id="layer1">
    <g
       id="g1598"
       transform="translate(152.64424,401.02934)"
       style="display:inline">
      <g
         id="g71"
         transform="matrix(0.04925172,0,0,0.04925172,45.749868,126.12033)">
        <path
           d="M 0,0 H 512 V 512 H 0 Z"
           fill="#00000"
           fill-opacity="1"
           id="path57" />
        <path
           d="m 149.7,85.6 c -1.2,0 -2.5,0 -3.7,0.1 -33.9,0.8 -75.5,10.7 -127.3,33.7 v 243.4 c 60.8,-28.8 106.7,-37.1 144.2,-33.1 13.7,1.4 26.3,4.5 37.9,8.6 l -45.1,-78.8 c -8.6,3.5 -17.9,5.5 -27.7,5.5 -40.21,0 -73,-32.8 -73,-73 0,-40.2 32.79,-73 73,-73 40.2,0 73,32.8 73,73 0,24 -11.7,45.3 -29.7,58.7 l 57.3,100 c 6.2,3.2 12.1,6.7 17.9,10.2 v -243 c -23.2,-17.7 -50.2,-30 -86,-32 -3.5,-0.2 -7.1,-0.3 -10.8,-0.3 z m 212,0 c -3.7,0 -7.4,0.1 -10.9,0.3 -35.8,2 -62.7,14.3 -86,32 v 243 c 23.9,-14.6 50.1,-27.7 83.6,-31.2 37.5,-4 83.5,4.3 144.2,33.1 V 119.4 c -51.7,-23 -93.3,-32.9 -127.2,-33.7 -1.3,0 -2.5,-0.1 -3.7,-0.1 z M 128,137 c -30.48,0 -55,24.5 -55,55 0,30.5 24.52,55 55,55 30.5,0 55,-24.5 55,-55 0,-30.5 -24.5,-55 -55,-55 z m 2.3,13.9 h 2.8 C 109,169.1 98.32,193 99.73,221.1 73.67,182.3 101,151.7 130.3,150.9 Z m 13.1,196.5 c -32,0.3 -71.8,9.8 -124.7,36 v 42.5 c 60.8,-28.8 106.7,-37.1 144.2,-33.1 18.6,2 34.9,6.9 49.8,13.3 -4.7,6.1 -9.3,13.3 -13.9,21.7 h 53.3 l -36,-62.7 c -16.6,-8.3 -34.3,-14.6 -55.1,-16.8 -5.6,-0.6 -11.5,-0.9 -17.6,-0.9 z m 220.9,0 c -4.8,0.1 -9.4,0.4 -13.9,0.9 -34,3.6 -59.6,18 -85.6,34.4 v 0.3 c -6.1,-1.9 -12.3,-2.3 -18.3,-1.2 l 26.3,46 H 316 c -6,-8.2 -11.8,-15.4 -17.7,-21.6 15,-6.5 31.4,-11.4 50.1,-13.4 37.5,-4 83.5,4.3 144.2,33.1 v -42.5 c -53.1,-26.3 -93.1,-35.9 -125.2,-36 z"
           fill="#ffffff"
           fill-opacity="1"
           id="path59" />
      </g>
      <text
         xml:space="preserve"
         style="font-size:6.68724px;line-height:1.25;font-family:Aldrich;-inkscape-font-specification:Aldrich;letter-spacing:0px;word-spacing:0px;stroke-width:0.156732"
         x="45.45076"
         y="157.69525"
         id="text1509"><tspan
           sodipodi:role="line"
           id="tspan1507"
           x="45.45076"
           y="157.69525"
           style="stroke-width:0.156732">Results</tspan></text>
    </g>
    <g
       id="g1417"
       transform="translate(-97.065309,366.91214)"
       style="display:inline">
      <g
         id="g215"
         transform="matrix(0.04925172,0,0,0.04925172,295.57164,54.077558)">
        <path
           d="M 0,0 H 512 V 512 H 0 Z"
           fill="#00000"
           fill-opacity="1"
           id="path201" />
        <path
           d="m 53.156,25.78 c 30.55,26.034 52.813,95.137 52.813,176.47 0,44.36 -6.922,84.657 -17.814,116.688 31.134,71.43 85.946,122.39 179.906,175.28 91.558,-48.747 144.024,-96.565 173.75,-167.593 -12.5,-33.06 -20.28,-76.47 -20.28,-124.375 0,-81.333 22.262,-150.436 52.812,-176.47 -41.924,9.324 -83.858,16.318 -125.78,20.595 l -70.659,135.345 46.47,20.655 -115.062,189.345 41.468,-169.595 -22.53,-10.25 -71.375,19.938 59.406,-50.22 43.657,-130.373 c -68.92,0.347 -137.86,-7.508 -206.78,-25.44 z"
           fill="#ffffff"
           fill-rule="evenodd"
           fill-opacity="1"
           id="path203" />
      </g>
      <text
         xml:space="preserve"
         style="font-size:4.28035px;line-height:1.25;font-family:Aldrich;-inkscape-font-specification:Aldrich;letter-spacing:0px;word-spacing:0px;stroke-width:0.156732"
         x="295.3223"
         y="82.706924"
         id="text1390"><tspan
           sodipodi:role="line"
           id="tspan1388"
           x="295.3223"
           y="82.706924"
           style="stroke-width:0.156732">weaknesses</tspan></text>
    </g>
    <g
       id="g1591"
       transform="translate(168.64355,358.70859)"
       style="display:inline">
      <g
         id="g295"
         transform="matrix(0.04925172,0,0,0.04925172,30.685829,114.13748)">
        <path
           d="M 0,0 H 512 V 512 H 0 Z"
           fill="#00000"
           fill-opacity="1"
           id="path281" />
        <path
           fill="#ffffff"
           d="m 251.828,15.982 -29.2,136.08 -56.74,-75.652 7.78,90.4 -49.154,-24.68 22.19,49.643 -67.16,-13.433 57.817,70.668 -55.48,-10.514 35.634,26.608 c 29.894,0.77 62.017,-2.565 90.597,4.35 18.697,4.522 36.167,14.302 48.255,32.74 0.414,0.632 0.82,1.274 1.22,1.923 0.402,-0.65 0.806,-1.29 1.22,-1.922 12.088,-18.44 29.558,-28.22 48.254,-32.742 27.64,-6.685 58.596,-3.782 87.643,-4.28 l 35.25,-26.676 -42.05,8.178 41.468,-80.596 -59.507,19.852 19.092,-77.352 -57.234,59.867 6.055,-109.607 -46.232,97.31 L 251.831,15.983 Z M 92.236,281.787 50.27,311.02 257.613,383.7 464.95,310.67 423.96,281.79 c -42.595,7.18 -92.04,-5.54 -126.02,10.345 l -0.116,0.05 -0.013,0.008 c -5.226,2.37 -9.962,5.418 -14.255,9.382 -7.564,6.774 -13.817,16.048 -18.36,28.694 l -7.777,13.763 -7.158,-12.67 c -5.434,-15.833 -13.453,-26.5 -23.324,-33.637 -0.157,-0.114 -0.316,-0.22 -0.473,-0.332 -0.63,-0.446 -1.267,-0.883 -1.912,-1.302 -33.565,-21.772 -86.63,-6.6 -132.314,-14.3 z m -64.26,41.3 -6.166,17.643 190.67,66.674 v 17.817 h 91.55 v -18.687 h -0.055 l 188.175,-65.804 -6.168,-17.642 -205.658,71.918 4.03,11.527 h -54.75 l 4.03,-11.527 -205.657,-71.918 z"
           fill-opacity="1"
           id="path283" />
      </g>
      <text
         xml:space="preserve"
         style="font-size:6.68724px;line-height:1.25;font-family:Aldrich;-inkscape-font-specification:Aldrich;letter-spacing:0px;word-spacing:0px;stroke-width:0.156732"
         x="28.729517"
         y="145.19669"
         id="text1459"><tspan
           sodipodi:role="line"
           id="tspan1457"
           x="28.729517"
           y="145.19669"
           style="stroke-width:0.156732">Doctrine</tspan></text>
    </g>
    <g
       id="g1495"
       transform="translate(146.30758,360.3141)"
       style="display:inline">
      <g
         id="g279"
         transform="matrix(0.04925172,0,0,0.04925172,174.45898,56.33164)">
        <path
           d="M 0,0 H 512 V 512 H 0 Z"
           fill="#00000"
           fill-opacity="1"
           id="path265" />
        <path
           fill="#ffffff"
           d="m 265,34 47.898,35.924 61.563,123.123 -8.057,32.23 -24.943,-4.158 3.16,-10.533 2.842,-9.473 -91.463,-18.29 -91.463,18.29 6.002,20.006 -24.943,4.156 -8.057,-32.228 L 199.1,69.926 247,34 v 56 h -39 l -16,32 64,38 64,-38 -16,-32 h -39 z m 188.313,169.258 30.3,10.101 -13.478,29.205 -30.016,-5.001 z m -394.626,0 13.194,34.304 -30.016,5.002 -13.478,-29.205 z M 256,205.32 309.8,264.012 281.306,359 h -50.61 L 202.2,264.012 Z m 25.254,0.909 43.283,8.658 -8.715,29.052 z m -50.508,0.002 -34.568,37.709 -8.715,-29.053 z m 105.5,32.267 L 482.5,262.873 429.799,368.28 329.98,259.385 Z m -160.492,0 6.266,20.887 L 82.2,368.279 29.5,262.873 Z m 148.205,40.96 72.201,78.765 -84.556,-37.582 z m -135.918,0 12.355,41.183 -84.556,37.582 z m 118.348,58.564 28.646,12.732 L 312.973,439 H 265 v -62 h 29.695 z m -100.778,0 L 217.305,377 H 247 v 62 h -47.973 l -22.062,-88.246 z m 181.989,36.093 18.105,8.047 -9.984,21.635 -16.387,-8.193 z m -263.2,0 8.266,21.489 -16.387,8.193 -9.984,-21.635 z M 311,457 v 30 h -30 v -30 z m -80,0 v 30 h -30 v -30 z"
           fill-opacity="1"
           id="path267" />
      </g>
      <text
         xml:space="preserve"
         style="font-size:4.48706px;line-height:1.25;font-family:Aldrich;-inkscape-font-specification:Aldrich;letter-spacing:0px;word-spacing:0px;stroke-width:0.156732"
         x="174.05319"
         y="86.90757"
         id="text1481"><tspan
           sodipodi:role="line"
           id="tspan1479"
           x="174.05319"
           y="86.90757"
           style="stroke-width:0.156732">Destroyers</tspan></text>
    </g>
    <g
       id="g1488"
       transform="translate(151.82453,244.7944)"
       style="display:inline">
      <g
         id="g55"
         transform="matrix(0.04925172,0,0,0.04925172,209.00751,57.070933)">
        <path
           d="M 0,0 H 512 V 512 H 0 Z"
           fill="#00000"
           fill-opacity="1"
           id="path41" />
        <path
           fill="#ffffff"
           d="M 256,23.2 C 180.5,23.2 123.1,79.95 83.95,154.4 48.03,222.6 28.62,304.7 25.61,365.8 61.69,343.9 100.2,319.9 137.8,300.2 c 26.8,-14 52.8,-25.8 77.2,-32.7 v -33 l 41,-41 41,41 v 33 c 24.4,6.9 50.4,18.7 77.2,32.7 37.6,19.7 76.1,43.7 112.2,65.6 C 483.4,304.7 464,222.6 428,154.4 388.9,79.95 331.5,23.2 256,23.2 Z m -201.01,23 v 42.42 l 18,-9 V 46.2 Z m 384.01,0 v 33.42 l 18,8.99 V 46.2 Z m -235.2,7 h 104.4 l 82.7,99.2 -11.4,13.6 C 307,124.2 202.9,126.2 132.4,166 l -11.3,-13.6 z m -116.81,39.56 -46,23.04 v 91.4 c 7.7,-20.9 16.71,-41.6 27.04,-61.2 5.87,-11.1 12.2,-22 18.96,-32.4 z m 338.01,0 v 20.84 c 6.8,10.4 13.1,21.3 19,32.4 10.3,19.6 19.3,40.2 27,61.1 v -91.3 z m -169,126.14 -23,23 v 67.3 h 46 v -67.3 z m -41,67.6 c -7.4,2.3 -15.2,5.1 -23.1,8.3 l 8.2,49.5 30.9,16.5 v 124.4 h 16 v -103 h 18 v 103 h 16 V 360.8 l 30.9,-16.5 8.2,-49.5 c -7.9,-3.2 -15.7,-6 -23.1,-8.3 v 40.7 h -82 z m -84.9,38.4 c -8.8,4.8 -17.7,9.8 -26.5,15 l -9.96,148.9 25.56,-76.6 z m 251.8,0 10.9,87.3 25.6,76.6 -10,-148.9 c -8.8,-5.1 -17.7,-10.2 -26.5,-15 z"
           fill-opacity="1"
           id="path43" />
      </g>
      <text
         xml:space="preserve"
         style="font-size:6.68724px;line-height:1.25;font-family:Aldrich;-inkscape-font-specification:Aldrich;letter-spacing:0px;word-spacing:0px;stroke-width:0.156732"
         x="207.00394"
         y="88.44812"
         id="text1477"><tspan
           sodipodi:role="line"
           id="tspan1475"
           x="207.00394"
           y="88.44812"
           style="stroke-width:0.156732">Fighters</tspan></text>
    </g>
  </g>
</svg>
