<?xml version="1.0" encoding="UTF-8" standalone="no"?>
<svg
   xmlns:dc="http://purl.org/dc/elements/1.1/"
   xmlns:cc="http://creativecommons.org/ns#"
   xmlns:rdf="http://www.w3.org/1999/02/22-rdf-syntax-ns#"
   xmlns:svg="http://www.w3.org/2000/svg"
   xmlns="http://www.w3.org/2000/svg"
   xmlns:sodipodi="http://sodipodi.sourceforge.net/DTD/sodipodi-0.dtd"
   xmlns:inkscape="http://www.inkscape.org/namespaces/inkscape"
   width="22.624107mm"
   height="22.624107mm"
   viewBox="0 0 22.624107 22.624107"
   version="1.1"
   id="svg2303"
   inkscape:version="1.0.1 (3bc2e813f5, 2020-09-07)"
   sodipodi:docname="art.svg">
  <defs
     id="defs2297" />
  <sodipodi:namedview
     id="base"
     pagecolor="#ffffff"
     bordercolor="#666666"
     borderopacity="1.0"
     inkscape:pageopacity="0.0"
     inkscape:pageshadow="2"
     inkscape:zoom="0.35"
     inkscape:cx="405.50844"
     inkscape:cy="-488.77729"
     inkscape:document-units="mm"
     inkscape:current-layer="layer1"
     inkscape:document-rotation="0"
     showgrid="false" />
  <metadata
     id="metadata2300">
    <rdf:RDF>
      <cc:Work
         rdf:about="">
        <dc:format>image/svg+xml</dc:format>
        <dc:type
           rdf:resource="http://purl.org/dc/dcmitype/StillImage" />
        <dc:title />
      </cc:Work>
    </rdf:RDF>
  </metadata>
  <g
     inkscape:label="Layer 1"
     inkscape:groupmode="layer"
     id="layer1"
     transform="translate(1.457441,-277.48899)">
    <g
       id="g1608"
       transform="translate(-98.131025,226.55286)">
      <rect
         fill="#000000"
         fill-opacity="1"
         height="22.624107"
         width="22.624107"
         rx="2.1210101"
         ry="2.1210101"
         id="rect121"
         x="-119.29769"
         y="50.936131"
         transform="scale(-1,1)"
         style="stroke-width:0.0441877" />
      <path
         d="m 112.30278,51.845073 c 0.38443,0.0071 0.72909,0.08793 0.94561,0.221822 0.22536,0.134331 0.34467,0.288546 0.37118,0.598744 0.24745,2.352112 0.25629,4.991444 -0.004,7.311298 -0.0619,0.565603 -0.14582,1.113531 -0.24303,1.630527 -0.15908,0.282801 -0.46839,0.490484 -0.76887,0.543509 -0.20768,0.03977 -0.37117,0.0044 -0.45513,-0.05302 -0.0795,-0.06186 -0.15024,-0.141401 -0.12373,-0.424202 0.11931,-1.687971 0.32699,-2.995927 0.45956,-6.678531 l -0.8219,-0.0274 c -0.13256,3.656975 -0.32699,4.929581 -0.45955,6.639645 -0.0398,0.490484 0.14582,0.923523 0.46839,1.153299 0.31815,0.234195 0.72026,0.265126 1.08702,0.198845 0.11489,-0.02209 0.22094,-0.05744 0.33583,-0.09721 -0.28281,1.051667 -0.63631,1.913328 -1.06051,2.483349 -1.38749,1.864722 -3.45106,3.137328 -5.38648,3.676418 -1.80728,0.499321 -3.4599,0.340245 -4.35249,-0.39769 0.2828,-0.799797 0.68049,-1.281443 1.81611,-2.014959 l 0.26955,-0.172332 -0.4242,-1.263769 2.08124,-0.07954 -1.47587,-1.453775 1.74541,-1.011899 -0.91468,-0.265126 c -1.34331,-0.39769 -2.48777,-0.764448 -3.22571,-1.237256 2.20497,-0.954455 3.50409,-1.648202 5.12578,-3.459898 l 0.33583,-0.375595 -0.42862,-0.256289 c -0.52142,-0.304895 -0.66282,-0.614209 -0.73352,-1.011899 -0.0398,-0.247451 -0.0354,-0.530252 -0.0354,-0.820565 0.43304,0.119306 0.93236,0.303569 1.40075,0.524508 0.95445,0.441877 1.87356,1.056086 2.08124,1.2947 l 0.61421,-0.547928 c -0.43304,-0.486065 -1.33005,-1.016317 -2.34195,-1.490451 -0.38443,-0.178077 -0.77328,-0.346874 -1.1533,-0.480321 0.73794,-0.495344 2.11659,-1.425053 3.09314,-2.085218 0.44188,-0.296499 1.39633,-0.586371 2.17846,-0.571789 z m -0.17234,14.684902 c 0.62747,2.44358 1.30796,4.356908 1.52448,4.953442 -0.65398,0.406527 -2.06357,0.79096 -3.69851,0.989805 -1.69681,0.194426 -3.63223,0.225357 -5.33346,0.110469 0.13256,-0.852823 0.0309,-1.608433 -0.20768,-2.44358 0.77328,0.02209 1.60843,-0.09721 2.45242,-0.326989 1.86472,-0.521415 3.80014,-1.634946 5.26275,-3.283147 z"
         fill="#ffffff"
         fill-opacity="1"
         id="path123"
         style="stroke-width:0.0441877" />
    </g>
  </g>
</svg>
