<?xml version="1.0" encoding="UTF-8" standalone="no"?>
<svg
   xmlns:dc="http://purl.org/dc/elements/1.1/"
   xmlns:cc="http://creativecommons.org/ns#"
   xmlns:rdf="http://www.w3.org/1999/02/22-rdf-syntax-ns#"
   xmlns:svg="http://www.w3.org/2000/svg"
   xmlns="http://www.w3.org/2000/svg"
   xmlns:sodipodi="http://sodipodi.sourceforge.net/DTD/sodipodi-0.dtd"
   xmlns:inkscape="http://www.inkscape.org/namespaces/inkscape"
   width="22.624107mm"
   height="22.624107mm"
   viewBox="0 0 22.624107 22.624107"
   version="1.1"
   id="svg2303"
   inkscape:version="1.0.1 (3bc2e813f5, 2020-09-07)"
   sodipodi:docname="bio.svg">
  <defs
     id="defs2297" />
  <sodipodi:namedview
     id="base"
     pagecolor="#ffffff"
     bordercolor="#666666"
     borderopacity="1.0"
     inkscape:pageopacity="0.0"
     inkscape:pageshadow="2"
     inkscape:zoom="0.35"
     inkscape:cx="471.32565"
     inkscape:cy="-34.388651"
     inkscape:document-units="mm"
     inkscape:current-layer="layer1"
     inkscape:document-rotation="0"
     showgrid="false" />
  <metadata
     id="metadata2300">
    <rdf:RDF>
      <cc:Work
         rdf:about="">
        <dc:format>image/svg+xml</dc:format>
        <dc:type
           rdf:resource="http://purl.org/dc/dcmitype/StillImage" />
        <dc:title></dc:title>
      </cc:Work>
    </rdf:RDF>
  </metadata>
  <g
     inkscape:label="Layer 1"
     inkscape:groupmode="layer"
     id="layer1"
     transform="translate(18.871578,-157.26533)">
    <g
       id="g1600"
       transform="translate(-54.46989,106.3292)">
      <rect
         fill="#000000"
         fill-opacity="1"
         height="22.624107"
         width="22.624107"
         rx="2.1210101"
         ry="2.1210101"
         id="rect159"
         x="-58.22242"
         y="50.936131"
         transform="scale(-1,1)"
         style="stroke-width:0.0441877" />
      <path
         d="m 39.883193,51.712201 c 0.216078,0.159517 0.416381,0.344355 0.596534,0.559239 0.578682,0.690389 0.920341,1.657614 0.947208,2.950856 0.901296,-0.528309 1.89225,-0.744033 2.852891,-0.708329 1.007921,0.03734 1.982967,0.351115 2.783825,0.868509 0.915128,0.59132 1.620054,1.458195 1.877978,2.502129 0.208654,0.844869 0.109762,1.792696 -0.372944,2.747946 0.256421,-0.01657 0.505507,-0.02506 0.747081,-0.02488 0.07256,0 0.144273,0.0012 0.215416,0.0028 1.707854,0.03747 3.026151,0.505242 3.863684,1.409853 0.993163,1.072656 1.197929,2.683077 0.631001,4.613462 1.146229,-0.278073 2.30271,-0.241265 3.354156,0.238879 v 1.807542 C 57.121525,68.46192 56.803816,68.273106 56.427248,68.119598 h -0.0013 l -3.588925,2.434477 c -8.84e-4,0.03358 -0.0014,0.06761 -0.0013,0.100748 6.19e-4,0.597506 0.130442,1.097402 0.387968,1.518953 l 4.156429,-2.873527 v 1.003812 l -3.48672,2.409644 h -1.29797 c -0.384742,-0.583852 -0.584603,-1.284625 -0.585487,-2.057512 -8.84e-4,-0.811596 0.204899,-1.704453 0.610365,-2.670528 -2.28287,0.714957 -4.320012,0.14794 -5.469643,-1.164081 -1.114326,-1.271723 -1.332039,-3.214303 -0.24997,-5.120251 -1.540826,0.242855 -2.854968,0.181611 -3.900891,-0.191952 l -0.0097,0.01388 -0.04825,-0.03447 c -0.376789,-0.140075 -0.718404,-0.320803 -1.021841,-0.544128 -1.12714,-0.829403 -1.628759,-2.216765 -1.462348,-3.960323 -1.254268,0.826575 -2.706807,0.967976 -4.079144,0.831303 v -3.289245 l 1.027364,-2.814226 h 2.477384 z m -1.643341,0.127039 -1.614177,4.415988 c 0.379351,0.03491 0.792904,0.03358 1.237256,-0.0028 l 1.499642,-3.898152 C 39.038545,52.12123 38.659723,51.954599 38.239896,51.83918 Z m 1.757964,1.162667 -1.20279,3.127607 c 0.560831,-0.0992 1.160369,-0.246568 1.79654,-0.448727 0.04693,-1.246005 -0.191952,-2.093525 -0.593795,-2.67888 z m 3.341695,3.079354 c -0.592115,0.0289 -1.244989,0.118423 -1.948413,0.269235 -0.192879,0.963911 -0.187709,1.766095 -0.0069,2.419277 z m 1.012164,0.01237 -2.572609,3.536431 c 0.171449,0.250235 0.381517,0.466401 0.629675,0.649029 0.09712,0.07141 0.201275,0.137247 0.312098,0.198845 l 2.944006,-4.123288 c -0.382754,-0.133005 -0.821449,-0.221646 -1.31317,-0.260973 z m 2.068515,0.624196 -2.912279,4.08047 c 0.399015,0.114004 0.853132,0.182672 1.358772,0.202954 L 47.3039,57.652664 c -0.190096,-0.334501 -0.442938,-0.614872 -0.753931,-0.84372 -0.04198,-0.03093 -0.08528,-0.062 -0.129823,-0.09111 z m 1.223469,1.873824 -1.737151,2.387462 c 0.478774,-0.03747 0.992986,-0.111795 1.54109,-0.225048 l 0.0028,-0.0069 0.06761,-0.0082 c 0.01387,-0.003 0.02753,-0.0053 0.04145,-0.0083 0.009,-0.01348 0.01741,-0.02651 0.0262,-0.04003 0.157087,-0.812479 0.172332,-1.510026 0.05806,-2.098916 z m 1.69018,2.845953 c -0.397247,-7.07e-4 -0.826752,0.02598 -1.278704,0.07459 -0.246125,0.697945 -0.384079,1.324748 -0.423937,1.883501 L 49.69145,61.44587 c -0.06248,-0.0028 -0.125139,-0.0054 -0.189123,-0.0069 -0.05541,-0.0013 -0.111795,-0.0013 -0.168488,-0.0014 z m 1.427793,0.131238 -3.071045,2.906667 c 0.102957,0.506701 0.3155,0.931743 0.625521,1.275921 l 3.823651,-3.685476 c -0.377805,-0.221955 -0.837578,-0.390487 -1.378127,-0.497112 z m 2.029896,1.014903 -3.827761,3.691 c 0.350188,0.208124 0.772622,0.369983 1.266199,0.477801 l 3.138653,-2.971623 0.06496,0.06906 C 53.32421,63.347399 53.106497,62.925009 52.791528,62.583747 Z m 0.720789,2.199664 -2.228695,2.109964 c 0.541123,0.03252 1.142959,0.01555 1.8033,-0.05656 0.269413,-0.768998 0.406527,-1.452759 0.425351,-2.053403 z m 0.16703,2.877769 c -0.320228,0.642224 -0.545276,1.239819 -0.682082,1.786863 l 2.402707,-1.628052 C 54.893493,67.719552 54.319583,67.664008 53.679391,67.66118 Z m 3.700721,4.04596 8.8e-5,0.973455 -0.05391,0.03314 h -1.56588 l 1.619789,-1.006596 z"
         fill="#ffffff"
         fill-opacity="1"
         id="path161"
         style="stroke-width:0.0441877" />
    </g>
  </g>
</svg>
