<?xml version="1.0" encoding="UTF-8" standalone="no"?>
<svg
   xmlns:dc="http://purl.org/dc/elements/1.1/"
   xmlns:cc="http://creativecommons.org/ns#"
   xmlns:rdf="http://www.w3.org/1999/02/22-rdf-syntax-ns#"
   xmlns:svg="http://www.w3.org/2000/svg"
   xmlns="http://www.w3.org/2000/svg"
   xmlns:sodipodi="http://sodipodi.sourceforge.net/DTD/sodipodi-0.dtd"
   xmlns:inkscape="http://www.inkscape.org/namespaces/inkscape"
   width="22.624107mm"
   height="22.624107mm"
   viewBox="0 0 22.624107 22.624107"
   version="1.1"
   id="svg2303"
   inkscape:version="1.0.1 (3bc2e813f5, 2020-09-07)"
   sodipodi:docname="farming.svg">
  <defs
     id="defs2297" />
  <sodipodi:namedview
     id="base"
     pagecolor="#ffffff"
     bordercolor="#666666"
     borderopacity="1.0"
     inkscape:pageopacity="0.0"
     inkscape:pageshadow="2"
     inkscape:zoom="3.959798"
     inkscape:cx="79.737708"
     inkscape:cy="26.853598"
     inkscape:document-units="mm"
     inkscape:current-layer="layer1"
     inkscape:document-rotation="0"
     showgrid="false"
     inkscape:snap-page="true" />
  <metadata
     id="metadata2300">
    <rdf:RDF>
      <cc:Work
         rdf:about="">
        <dc:format>image/svg+xml</dc:format>
        <dc:type
           rdf:resource="http://purl.org/dc/dcmitype/StillImage" />
        <dc:title />
      </cc:Work>
    </rdf:RDF>
  </metadata>
  <g
     inkscape:label="Layer 1"
     inkscape:groupmode="layer"
     id="layer1"
     transform="translate(18.871578,-157.26533)">
    <g
       id="g1604"
       transform="translate(-85.007511,106.3292)">
      <rect
         fill="#000000"
         fill-opacity="1"
         height="22.624107"
         width="22.624107"
         rx="2.1210101"
         ry="2.1210101"
         id="rect140"
         x="-88.76004"
         y="50.936131"
         transform="scale(-1,1)"
         style="stroke-width:0.0441877" />
      <path
         d="m 77.275655,51.934774 c 0.371177,0.578859 0.729097,1.162137 0.905848,1.732158 -0.234195,0.190891 -0.441877,0.38134 -0.618628,0.592116 -0.260707,-0.157308 -0.534671,-0.292081 -0.782122,-0.402108 0.02651,-0.640722 0.247451,-1.263769 0.494902,-1.922166 z m 2.15636,1.882397 c 0.02651,0.25187 0,0.570021 -0.09721,0.874916 -0.424202,0.215194 -0.760028,0.453808 -1.091436,0.733516 -0.114888,-0.1414 -0.18117,-0.32257 -0.10605,-0.587696 0.344664,-0.447622 0.808635,-0.79096 1.294699,-1.020736 z m 7.313066,0.247451 c -0.05303,0.689328 -0.123725,1.3654 -0.32257,1.926584 -0.306221,0 -0.572673,0.04861 -0.848404,0.101632 -0.09766,-0.273964 -0.247451,-0.547928 -0.380014,-0.79096 0.406527,-0.499321 0.954454,-0.861661 1.550988,-1.237256 z m -13.477251,0.02209 c 0.450715,0.525833 0.883754,1.056086 1.140043,1.590757 -0.203264,0.225358 -0.388852,0.428621 -0.530253,0.671653 -0.278382,-0.114888 -0.565602,-0.212101 -0.82631,-0.28722 -0.06628,-0.640721 0.06186,-1.290281 0.21652,-1.97519 z m 2.355205,0.291639 c 0.565603,0.09279 1.060505,0.255846 1.54657,0.587696 0.150238,0.238614 0.132563,0.43304 0.05744,0.605372 -0.39769,-0.167914 -0.852823,-0.321687 -1.246094,-0.375596 -0.190007,-0.260707 -0.304895,-0.570021 -0.35792,-0.817472 z m 7.777037,0.06186 c -0.05744,0.689329 -0.119307,1.365401 -0.322571,1.926585 -0.300476,0.01326 -0.583277,0.03977 -0.852822,0.101631 -0.11047,-0.282801 -0.243033,-0.556765 -0.380015,-0.795378 0.406527,-0.494903 0.958874,-0.861661 1.555408,-1.232838 z m -15.355229,0.25187 c 0.583277,0.375596 1.14888,0.75561 1.550988,1.197487 -0.128144,0.273964 -0.247451,0.525834 -0.313733,0.795379 -0.309314,-0.03535 -0.60979,-0.04861 -0.879335,-0.03977 -0.247451,-0.592115 -0.309314,-1.250512 -0.35792,-1.953096 z m 16.093164,0.521415 c 0.362781,0.313733 0.611116,0.843986 0.689328,1.197487 -0.0044,0.106051 -0.03093,0.190007 -0.06186,0.260708 -0.274848,-0.14582 -0.592115,-0.229776 -0.852823,-0.265127 0.114888,-0.39327 0.18117,-0.795378 0.225358,-1.193068 z m -3.530598,0.176751 c 0.450714,0.441877 0.764447,1.020736 0.874916,1.396332 -0.02209,0.291639 -0.154657,0.437458 -0.313733,0.530252 -0.216519,-0.380014 -0.486064,-0.773285 -0.768866,-1.060505 0.0088,-0.318151 0.09721,-0.636303 0.207683,-0.866079 z m -0.945617,0.04419 c 0.01326,0.119307 0.0088,0.220938 -0.01326,0.331408 -0.313733,0.260707 -0.570021,0.631884 -0.680491,0.958873 -0.163494,0.114888 -0.32257,0.234195 -0.46397,0.353502 -0.132564,-0.141401 -0.21652,-0.331408 -0.136982,-0.623047 0.349083,-0.446296 0.813053,-0.782122 1.2947,-1.020736 z m -8.868474,0.0707 c 0.123726,0.21652 0.238614,0.516996 0.273964,0.835148 -0.291639,0.375595 -0.512578,0.724678 -0.68491,1.122368 -0.159075,-0.07954 -0.291638,-0.212101 -0.340245,-0.481646 0.04861,-0.28722 0.18117,-0.583278 0.309314,-0.821892 0.128144,-0.243032 0.291639,-0.477227 0.441877,-0.653978 z m 5.059493,0.490484 c 0.605372,0.128144 1.153299,0.300476 1.542151,0.587696 0.114888,0.21652 0.150238,0.477228 0.03977,0.667235 -0.375596,-0.159076 -0.799798,-0.296058 -1.166556,-0.362339 -0.194426,-0.260708 -0.349083,-0.596535 -0.415364,-0.892592 z m -0.804216,0.163494 c 0.04419,0.229776 0.132563,0.455134 0.243032,0.676072 -0.21652,0.190007 -0.410946,0.375596 -0.583278,0.578859 -0.132563,-0.123725 -0.220938,-0.296057 -0.190007,-0.565602 0.119307,-0.234195 0.340245,-0.494903 0.530253,-0.689329 z m -2.509862,0.618628 c 0.35792,0.04861 0.702584,0.167914 1.038411,0.322571 0.185588,0.220938 0.198845,0.419783 0.150238,0.600952 -0.243032,-0.07512 -0.486065,-0.114888 -0.715841,-0.159075 -0.101632,-0.101632 -0.203263,-0.172332 -0.32257,-0.260708 -0.03535,-0.172332 -0.08396,-0.344664 -0.150238,-0.50374 z m 14.794045,0.08838 c -0.132563,0.212101 -0.344664,0.455133 -0.605372,0.640721 -0.467506,-0.08837 -0.883312,-0.09279 -1.316793,-0.07512 -0.0044,-0.17675 0.04861,-0.362339 0.269545,-0.530252 0.502414,-0.136982 1.113088,-0.14582 1.65262,-0.03535 z m -7.520748,-0.04861 c 0.397689,0.393271 0.733516,0.945617 0.879335,1.405169 -0.04419,0.243033 -0.172332,0.46839 -0.371177,0.552347 -0.207682,-0.349083 -0.455133,-0.72026 -0.711422,-0.989805 0.0088,-0.335827 0.07954,-0.689328 0.203264,-0.967711 z m -8.134958,0.06186 c 0.154657,0.32257 0.256289,0.623047 0.282802,0.923523 -0.278383,0.353502 -0.46839,0.68491 -0.645141,1.056086 -0.238614,-0.145819 -0.349083,-0.304895 -0.388852,-0.503739 0.128145,-0.556766 0.402108,-1.060506 0.751191,-1.47587 z m 12.306278,0.362339 c -0.128145,0.212101 -0.340246,0.455134 -0.600953,0.640722 -0.46839,-0.07954 -0.883755,-0.110469 -1.316794,-0.07512 -0.0088,-0.18117 0.05303,-0.366758 0.269545,-0.534671 0.50374,-0.132564 1.104693,-0.14582 1.648202,-0.03093 z m -14.710089,0.300477 c 0.234195,0.167913 0.243032,0.291639 0.25187,0.477227 -0.119307,0 -0.247451,0.0088 -0.371177,0.01768 -0.313733,0.03093 -0.627465,0.07512 -0.919104,0.159076 -0.282802,-0.159076 -0.521415,-0.388852 -0.671653,-0.592116 0.42862,-0.132563 1.228418,-0.234194 1.710064,-0.06186 z m 6.804907,0.136982 c 0.552347,0.101631 1.148881,0.273963 1.54657,0.596534 0.220939,0.362339 0.04861,0.702584 -0.176751,0.883754 -0.300476,0.01326 -0.702584,-0.243033 -0.998642,-0.645141 -0.194426,-0.265126 -0.318152,-0.578859 -0.371177,-0.835147 z m -0.777703,0.265126 c 0.05744,0.234195 0.154657,0.463971 0.278382,0.684909 -0.136982,0.128145 -0.269545,0.256289 -0.384433,0.388852 -0.150238,-0.128144 -0.260707,-0.300476 -0.225357,-0.600953 0.08396,-0.163494 0.207682,-0.326989 0.331408,-0.472808 z m 11.236934,0.353501 c -0.136982,0.220939 -0.35792,0.472809 -0.631884,0.658397 l -0.03977,0.02651 c -0.445412,-0.07954 -0.837357,-0.08837 -1.246093,-0.0707 -0.01768,-0.194426 0.02651,-0.39769 0.265126,-0.583278 0.505065,-0.132563 1.111321,-0.141401 1.65262,-0.03093 z m -7.560517,0 c 0.446296,0.291639 0.782122,1.1533 0.874917,1.400751 -0.05303,0.410946 -0.318152,0.596534 -0.676072,0.605372 -0.508159,-0.543509 -0.481646,-1.378657 -0.198845,-2.006123 z m 0.198845,2.006123 0.0044,0.0044 c -0.0044,0 -0.0044,-0.0044 -0.0044,-0.0044 z m -6.588388,-1.984029 c 0.128144,0.225358 0.247451,0.534672 0.278383,0.866079 0.05302,0.499322 -0.07512,0.958874 -0.309314,1.148881 -0.384433,-0.04861 -0.640722,-0.141401 -0.72026,-0.53909 0.04861,-0.282801 0.18117,-0.578859 0.309314,-0.821892 0.128144,-0.243032 0.291639,-0.477227 0.441877,-0.653978 z m 0.950036,0.150239 c 0.159076,0.03093 0.433039,0.17675 0.490483,0.203263 0.136982,0.203263 0.21652,0.455133 0.128145,0.658397 -0.172332,-0.04419 -0.326989,-0.08838 -0.486065,-0.114888 -0.02209,-0.256289 -0.0707,-0.530253 -0.132563,-0.746772 z M 83.19239,58.6734 c -0.203264,0.28722 -0.43304,0.512577 -0.676072,0.68491 -0.428621,-0.06628 -0.883755,-0.08396 -1.246094,-0.07512 -0.01326,-0.190007 0.03093,-0.397689 0.269545,-0.583277 0.50374,-0.132563 1.109112,-0.136982 1.652621,-0.02651 z m -13.101656,0.194426 c 0.238613,0.176751 0.318151,0.362339 0.318151,0.592115 -0.406527,0.01326 -0.848404,0.06628 -1.206324,0.159076 -0.287221,-0.167913 -0.570022,-0.397689 -0.75561,-0.640722 0.468389,-0.220938 1.228418,-0.21652 1.643783,-0.110469 z m 5.960922,0.406527 c 0.163494,0.176751 0.344664,0.331408 0.547927,0.450715 -0.08396,0.35792 -0.326989,0.923523 -0.636303,1.064923 0.04419,-0.01768 -0.163494,-0.0088 -0.313733,-0.132563 -0.512577,-0.570021 -0.06186,-0.919104 0.402109,-1.383075 z m 9.650595,0.50374 c -0.136981,0.220938 -0.35792,0.472808 -0.631884,0.658397 -0.419783,0.278382 -0.879335,0.384433 -1.162137,0.269545 0.04419,0.01767 -0.10605,-0.119307 -0.123725,-0.313733 -0.01767,-0.194426 0.03093,-0.397689 0.269545,-0.583278 0.502414,-0.132563 1.107786,-0.141401 1.648201,-0.03093 z m -7.684242,-0.03093 c 0.01326,0.06628 0.02651,0.128145 0.04419,0.194426 l -0.04861,6.058135 c -0.265126,-0.0044 -0.530253,-0.0088 -0.795379,-0.0044 l 0.04419,-5.651609 c 0.04419,-0.128144 0.07954,-0.260707 0.10605,-0.388851 0.238614,0.0088 0.494903,-0.07954 0.64956,-0.207683 z m -4.405515,0.273964 c 0.296058,0.03977 0.702585,0.203264 0.874917,0.296058 0.278382,0.366758 0.159075,0.671653 -0.04861,0.905848 -0.441877,-0.02209 -0.888173,-0.278383 -1.117949,-0.543509 0.141401,-0.194426 0.234195,-0.424202 0.291639,-0.658397 z m 8.744748,0.132563 c -0.136982,0.220939 -0.357921,0.472809 -0.631884,0.658397 -0.415365,0.278383 -0.883755,0.384433 -1.162137,0.269545 -0.141401,-0.366758 -0.176751,-0.640722 0.1414,-0.89701 0.50374,-0.132563 1.113531,-0.141401 1.652621,-0.03093 z m -11.03809,0.711422 c 0,0.194426 -0.136982,0.344665 -0.09279,0.322571 -0.269545,0.136982 -0.742354,0.07512 -1.184231,-0.172332 -0.28722,-0.159076 -0.530252,-0.388852 -0.684909,-0.596534 0.636303,-0.141401 1.926584,-0.419784 1.961934,0.446295 z m 11.700905,-0.225357 c 0.02651,0.154657 0.07512,0.300477 0.154657,0.428621 -0.89701,1.630526 -1.665876,3.433385 -2.280085,5.196475 -0.256289,-0.04419 -0.525834,-0.07954 -0.804217,-0.114888 0.521415,-1.533314 1.166556,-3.097559 1.913328,-4.573428 0.388852,-0.247452 0.79096,-0.592116 1.016317,-0.93678 z m -3.345009,0.402108 c 0.03535,0.176751 0.101632,0.344664 0.207682,0.481646 -0.375595,1.493545 -0.662816,3.013602 -0.86166,4.524822 -0.265127,-0.02209 -0.530253,-0.03535 -0.799798,-0.04419 0.212101,-1.626108 0.525834,-3.26989 0.941198,-4.882742 0.172332,0.01768 0.344665,-0.01767 0.512578,-0.07954 z m -7.573774,0.05744 c 0.185589,0.05303 0.371177,0.07512 0.552347,0.04419 0.879335,1.555407 1.679133,3.278728 2.253573,5.028561 -0.278383,0.04419 -0.547928,0.09279 -0.804216,0.150239 -0.547928,-1.652621 -1.303538,-3.296404 -2.143104,-4.781111 0.07512,-0.132563 0.119306,-0.282801 0.1414,-0.441877 z m 3.203609,0.291639 c 0.167914,0.110469 0.353502,0.185589 0.53909,0.198845 0.366758,1.422844 0.689329,2.916389 0.941199,4.418771 -0.269545,0.0088 -0.53909,0.02209 -0.799798,0.04419 -0.243032,-1.458195 -0.561184,-2.920808 -0.914686,-4.308302 0.09721,-0.09721 0.172333,-0.220939 0.234195,-0.353502 z m 5.947666,5.757659 c 0.01767,0.516996 -0.207682,1.07818 -0.729097,1.599595 -2.12101,-0.402108 -4.321558,-0.441877 -6.411637,0.141401 -0.552346,-0.441878 -0.751191,-0.932361 -0.786541,-1.528895 2.509862,-0.671653 5.368807,-0.72026 7.927275,-0.212101 z m -3.729443,2.090078 c 0.39769,0 0.795379,0.02209 1.193069,0.05745 -0.04861,0.888172 -0.06628,1.767508 -0.05745,2.615912 0.106051,-0.786541 0.273964,-1.65262 0.494903,-2.571725 0.265126,0.03093 0.530252,0.06628 0.795379,0.110469 -0.247452,0.994224 -0.428621,1.926585 -0.530253,2.744057 l -0.760029,-0.09279 c 0.0044,0.123726 0.0044,0.247451 0.0088,0.371177 l -0.795379,0.01767 c -0.0088,-0.309314 -0.01326,-0.623047 -0.01326,-0.93678 l -0.561184,-0.0088 c 0.0044,0.344664 -0.0044,0.684909 -0.01767,1.016317 l -0.795379,-0.03535 c 0.04419,-1.016317 0.0088,-2.107754 -0.08837,-3.243378 0.375595,-0.03093 0.751191,-0.04419 1.126786,-0.04419 z m -1.860302,0.128145 c 0.132563,0.954454 0.172332,1.895653 0.09279,2.797082 l -0.795379,-0.0707 c 0.0707,-0.817473 0.03535,-1.687971 -0.08837,-2.580563 0.260707,-0.05744 0.525833,-0.10605 0.790959,-0.145819 z"
         fill="#ffffff"
         fill-opacity="1"
         id="path142"
         style="stroke-width:0.0441877" />
    </g>
    <g
       id="g1816"
       transform="translate(-85.007511,106.3292)">
      <rect
         fill="#000000"
         fill-opacity="1"
         height="22.624107"
         width="22.624107"
         rx="2.1210101"
         ry="2.1210101"
         id="rect1812"
         x="-88.76004"
         y="50.936131"
         transform="scale(-1,1)"
         style="stroke-width:0.0441877" />
      <path
         d="m 77.275655,51.934774 c 0.371177,0.578859 0.729097,1.162137 0.905848,1.732158 -0.234195,0.190891 -0.441877,0.38134 -0.618628,0.592116 -0.260707,-0.157308 -0.534671,-0.292081 -0.782122,-0.402108 0.02651,-0.640722 0.247451,-1.263769 0.494902,-1.922166 z m 2.15636,1.882397 c 0.02651,0.25187 0,0.570021 -0.09721,0.874916 -0.424202,0.215194 -0.760028,0.453808 -1.091436,0.733516 -0.114888,-0.1414 -0.18117,-0.32257 -0.10605,-0.587696 0.344664,-0.447622 0.808635,-0.79096 1.294699,-1.020736 z m 7.313066,0.247451 c -0.05303,0.689328 -0.123725,1.3654 -0.32257,1.926584 -0.306221,0 -0.572673,0.04861 -0.848404,0.101632 -0.09766,-0.273964 -0.247451,-0.547928 -0.380014,-0.79096 0.406527,-0.499321 0.954454,-0.861661 1.550988,-1.237256 z m -13.477251,0.02209 c 0.450715,0.525833 0.883754,1.056086 1.140043,1.590757 -0.203264,0.225358 -0.388852,0.428621 -0.530253,0.671653 -0.278382,-0.114888 -0.565602,-0.212101 -0.82631,-0.28722 -0.06628,-0.640721 0.06186,-1.290281 0.21652,-1.97519 z m 2.355205,0.291639 c 0.565603,0.09279 1.060505,0.255846 1.54657,0.587696 0.150238,0.238614 0.132563,0.43304 0.05744,0.605372 -0.39769,-0.167914 -0.852823,-0.321687 -1.246094,-0.375596 -0.190007,-0.260707 -0.304895,-0.570021 -0.35792,-0.817472 z m 7.777037,0.06186 c -0.05744,0.689329 -0.119307,1.365401 -0.322571,1.926585 -0.300476,0.01326 -0.583277,0.03977 -0.852822,0.101631 -0.11047,-0.282801 -0.243033,-0.556765 -0.380015,-0.795378 0.406527,-0.494903 0.958874,-0.861661 1.555408,-1.232838 z m -15.355229,0.25187 c 0.583277,0.375596 1.14888,0.75561 1.550988,1.197487 -0.128144,0.273964 -0.247451,0.525834 -0.313733,0.795379 -0.309314,-0.03535 -0.60979,-0.04861 -0.879335,-0.03977 -0.247451,-0.592115 -0.309314,-1.250512 -0.35792,-1.953096 z m 16.093164,0.521415 c 0.362781,0.313733 0.611116,0.843986 0.689328,1.197487 -0.0044,0.106051 -0.03093,0.190007 -0.06186,0.260708 -0.274848,-0.14582 -0.592115,-0.229776 -0.852823,-0.265127 0.114888,-0.39327 0.18117,-0.795378 0.225358,-1.193068 z m -3.530598,0.176751 c 0.450714,0.441877 0.764447,1.020736 0.874916,1.396332 -0.02209,0.291639 -0.154657,0.437458 -0.313733,0.530252 -0.216519,-0.380014 -0.486064,-0.773285 -0.768866,-1.060505 0.0088,-0.318151 0.09721,-0.636303 0.207683,-0.866079 z m -0.945617,0.04419 c 0.01326,0.119307 0.0088,0.220938 -0.01326,0.331408 -0.313733,0.260707 -0.570021,0.631884 -0.680491,0.958873 -0.163494,0.114888 -0.32257,0.234195 -0.46397,0.353502 -0.132564,-0.141401 -0.21652,-0.331408 -0.136982,-0.623047 0.349083,-0.446296 0.813053,-0.782122 1.2947,-1.020736 z m -8.868474,0.0707 c 0.123726,0.21652 0.238614,0.516996 0.273964,0.835148 -0.291639,0.375595 -0.512578,0.724678 -0.68491,1.122368 -0.159075,-0.07954 -0.291638,-0.212101 -0.340245,-0.481646 0.04861,-0.28722 0.18117,-0.583278 0.309314,-0.821892 0.128144,-0.243032 0.291639,-0.477227 0.441877,-0.653978 z m 5.059493,0.490484 c 0.605372,0.128144 1.153299,0.300476 1.542151,0.587696 0.114888,0.21652 0.150238,0.477228 0.03977,0.667235 -0.375596,-0.159076 -0.799798,-0.296058 -1.166556,-0.362339 -0.194426,-0.260708 -0.349083,-0.596535 -0.415364,-0.892592 z m -0.804216,0.163494 c 0.04419,0.229776 0.132563,0.455134 0.243032,0.676072 -0.21652,0.190007 -0.410946,0.375596 -0.583278,0.578859 -0.132563,-0.123725 -0.220938,-0.296057 -0.190007,-0.565602 0.119307,-0.234195 0.340245,-0.494903 0.530253,-0.689329 z m -2.509862,0.618628 c 0.35792,0.04861 0.702584,0.167914 1.038411,0.322571 0.185588,0.220938 0.198845,0.419783 0.150238,0.600952 -0.243032,-0.07512 -0.486065,-0.114888 -0.715841,-0.159075 -0.101632,-0.101632 -0.203263,-0.172332 -0.32257,-0.260708 -0.03535,-0.172332 -0.08396,-0.344664 -0.150238,-0.50374 z m 14.794045,0.08838 c -0.132563,0.212101 -0.344664,0.455133 -0.605372,0.640721 -0.467506,-0.08837 -0.883312,-0.09279 -1.316793,-0.07512 -0.0044,-0.17675 0.04861,-0.362339 0.269545,-0.530252 0.502414,-0.136982 1.113088,-0.14582 1.65262,-0.03535 z m -7.520748,-0.04861 c 0.397689,0.393271 0.733516,0.945617 0.879335,1.405169 -0.04419,0.243033 -0.172332,0.46839 -0.371177,0.552347 -0.207682,-0.349083 -0.455133,-0.72026 -0.711422,-0.989805 0.0088,-0.335827 0.07954,-0.689328 0.203264,-0.967711 z m -8.134958,0.06186 c 0.154657,0.32257 0.256289,0.623047 0.282802,0.923523 -0.278383,0.353502 -0.46839,0.68491 -0.645141,1.056086 -0.238614,-0.145819 -0.349083,-0.304895 -0.388852,-0.503739 0.128145,-0.556766 0.402108,-1.060506 0.751191,-1.47587 z m 12.306278,0.362339 c -0.128145,0.212101 -0.340246,0.455134 -0.600953,0.640722 -0.46839,-0.07954 -0.883755,-0.110469 -1.316794,-0.07512 -0.0088,-0.18117 0.05303,-0.366758 0.269545,-0.534671 0.50374,-0.132564 1.104693,-0.14582 1.648202,-0.03093 z m -14.710089,0.300477 c 0.234195,0.167913 0.243032,0.291639 0.25187,0.477227 -0.119307,0 -0.247451,0.0088 -0.371177,0.01768 -0.313733,0.03093 -0.627465,0.07512 -0.919104,0.159076 -0.282802,-0.159076 -0.521415,-0.388852 -0.671653,-0.592116 0.42862,-0.132563 1.228418,-0.234194 1.710064,-0.06186 z m 6.804907,0.136982 c 0.552347,0.101631 1.148881,0.273963 1.54657,0.596534 0.220939,0.362339 0.04861,0.702584 -0.176751,0.883754 -0.300476,0.01326 -0.702584,-0.243033 -0.998642,-0.645141 -0.194426,-0.265126 -0.318152,-0.578859 -0.371177,-0.835147 z m -0.777703,0.265126 c 0.05744,0.234195 0.154657,0.463971 0.278382,0.684909 -0.136982,0.128145 -0.269545,0.256289 -0.384433,0.388852 -0.150238,-0.128144 -0.260707,-0.300476 -0.225357,-0.600953 0.08396,-0.163494 0.207682,-0.326989 0.331408,-0.472808 z m 11.236934,0.353501 c -0.136982,0.220939 -0.35792,0.472809 -0.631884,0.658397 l -0.03977,0.02651 c -0.445412,-0.07954 -0.837357,-0.08837 -1.246093,-0.0707 -0.01768,-0.194426 0.02651,-0.39769 0.265126,-0.583278 0.505065,-0.132563 1.111321,-0.141401 1.65262,-0.03093 z m -7.560517,0 c 0.446296,0.291639 0.782122,1.1533 0.874917,1.400751 -0.05303,0.410946 -0.318152,0.596534 -0.676072,0.605372 -0.508159,-0.543509 -0.481646,-1.378657 -0.198845,-2.006123 z m 0.198845,2.006123 0.0044,0.0044 c -0.0044,0 -0.0044,-0.0044 -0.0044,-0.0044 z m -6.588388,-1.984029 c 0.128144,0.225358 0.247451,0.534672 0.278383,0.866079 0.05302,0.499322 -0.07512,0.958874 -0.309314,1.148881 -0.384433,-0.04861 -0.640722,-0.141401 -0.72026,-0.53909 0.04861,-0.282801 0.18117,-0.578859 0.309314,-0.821892 0.128144,-0.243032 0.291639,-0.477227 0.441877,-0.653978 z m 0.950036,0.150239 c 0.159076,0.03093 0.433039,0.17675 0.490483,0.203263 0.136982,0.203263 0.21652,0.455133 0.128145,0.658397 -0.172332,-0.04419 -0.326989,-0.08838 -0.486065,-0.114888 -0.02209,-0.256289 -0.0707,-0.530253 -0.132563,-0.746772 z M 83.19239,58.6734 c -0.203264,0.28722 -0.43304,0.512577 -0.676072,0.68491 -0.428621,-0.06628 -0.883755,-0.08396 -1.246094,-0.07512 -0.01326,-0.190007 0.03093,-0.397689 0.269545,-0.583277 0.50374,-0.132563 1.109112,-0.136982 1.652621,-0.02651 z m -13.101656,0.194426 c 0.238613,0.176751 0.318151,0.362339 0.318151,0.592115 -0.406527,0.01326 -0.848404,0.06628 -1.206324,0.159076 -0.287221,-0.167913 -0.570022,-0.397689 -0.75561,-0.640722 0.468389,-0.220938 1.228418,-0.21652 1.643783,-0.110469 z m 5.960922,0.406527 c 0.163494,0.176751 0.344664,0.331408 0.547927,0.450715 -0.08396,0.35792 -0.326989,0.923523 -0.636303,1.064923 0.04419,-0.01768 -0.163494,-0.0088 -0.313733,-0.132563 -0.512577,-0.570021 -0.06186,-0.919104 0.402109,-1.383075 z m 9.650595,0.50374 c -0.136981,0.220938 -0.35792,0.472808 -0.631884,0.658397 -0.419783,0.278382 -0.879335,0.384433 -1.162137,0.269545 0.04419,0.01767 -0.10605,-0.119307 -0.123725,-0.313733 -0.01767,-0.194426 0.03093,-0.397689 0.269545,-0.583278 0.502414,-0.132563 1.107786,-0.141401 1.648201,-0.03093 z m -7.684242,-0.03093 c 0.01326,0.06628 0.02651,0.128145 0.04419,0.194426 l -0.04861,6.058135 c -0.265126,-0.0044 -0.530253,-0.0088 -0.795379,-0.0044 l 0.04419,-5.651609 c 0.04419,-0.128144 0.07954,-0.260707 0.10605,-0.388851 0.238614,0.0088 0.494903,-0.07954 0.64956,-0.207683 z m -4.405515,0.273964 c 0.296058,0.03977 0.702585,0.203264 0.874917,0.296058 0.278382,0.366758 0.159075,0.671653 -0.04861,0.905848 -0.441877,-0.02209 -0.888173,-0.278383 -1.117949,-0.543509 0.141401,-0.194426 0.234195,-0.424202 0.291639,-0.658397 z m 8.744748,0.132563 c -0.136982,0.220939 -0.357921,0.472809 -0.631884,0.658397 -0.415365,0.278383 -0.883755,0.384433 -1.162137,0.269545 -0.141401,-0.366758 -0.176751,-0.640722 0.1414,-0.89701 0.50374,-0.132563 1.113531,-0.141401 1.652621,-0.03093 z m -11.03809,0.711422 c 0,0.194426 -0.136982,0.344665 -0.09279,0.322571 -0.269545,0.136982 -0.742354,0.07512 -1.184231,-0.172332 -0.28722,-0.159076 -0.530252,-0.388852 -0.684909,-0.596534 0.636303,-0.141401 1.926584,-0.419784 1.961934,0.446295 z m 11.700905,-0.225357 c 0.02651,0.154657 0.07512,0.300477 0.154657,0.428621 -0.89701,1.630526 -1.665876,3.433385 -2.280085,5.196475 -0.256289,-0.04419 -0.525834,-0.07954 -0.804217,-0.114888 0.521415,-1.533314 1.166556,-3.097559 1.913328,-4.573428 0.388852,-0.247452 0.79096,-0.592116 1.016317,-0.93678 z m -3.345009,0.402108 c 0.03535,0.176751 0.101632,0.344664 0.207682,0.481646 -0.375595,1.493545 -0.662816,3.013602 -0.86166,4.524822 -0.265127,-0.02209 -0.530253,-0.03535 -0.799798,-0.04419 0.212101,-1.626108 0.525834,-3.26989 0.941198,-4.882742 0.172332,0.01768 0.344665,-0.01767 0.512578,-0.07954 z m -7.573774,0.05744 c 0.185589,0.05303 0.371177,0.07512 0.552347,0.04419 0.879335,1.555407 1.679133,3.278728 2.253573,5.028561 -0.278383,0.04419 -0.547928,0.09279 -0.804216,0.150239 -0.547928,-1.652621 -1.303538,-3.296404 -2.143104,-4.781111 0.07512,-0.132563 0.119306,-0.282801 0.1414,-0.441877 z m 3.203609,0.291639 c 0.167914,0.110469 0.353502,0.185589 0.53909,0.198845 0.366758,1.422844 0.689329,2.916389 0.941199,4.418771 -0.269545,0.0088 -0.53909,0.02209 -0.799798,0.04419 -0.243032,-1.458195 -0.561184,-2.920808 -0.914686,-4.308302 0.09721,-0.09721 0.172333,-0.220939 0.234195,-0.353502 z m 5.947666,5.757659 c 0.01767,0.516996 -0.207682,1.07818 -0.729097,1.599595 -2.12101,-0.402108 -4.321558,-0.441877 -6.411637,0.141401 -0.552346,-0.441878 -0.751191,-0.932361 -0.786541,-1.528895 2.509862,-0.671653 5.368807,-0.72026 7.927275,-0.212101 z m -3.729443,2.090078 c 0.39769,0 0.795379,0.02209 1.193069,0.05745 -0.04861,0.888172 -0.06628,1.767508 -0.05745,2.615912 0.106051,-0.786541 0.273964,-1.65262 0.494903,-2.571725 0.265126,0.03093 0.530252,0.06628 0.795379,0.110469 -0.247452,0.994224 -0.428621,1.926585 -0.530253,2.744057 l -0.760029,-0.09279 c 0.0044,0.123726 0.0044,0.247451 0.0088,0.371177 l -0.795379,0.01767 c -0.0088,-0.309314 -0.01326,-0.623047 -0.01326,-0.93678 l -0.561184,-0.0088 c 0.0044,0.344664 -0.0044,0.684909 -0.01767,1.016317 l -0.795379,-0.03535 c 0.04419,-1.016317 0.0088,-2.107754 -0.08837,-3.243378 0.375595,-0.03093 0.751191,-0.04419 1.126786,-0.04419 z m -1.860302,0.128145 c 0.132563,0.954454 0.172332,1.895653 0.09279,2.797082 l -0.795379,-0.0707 c 0.0707,-0.817473 0.03535,-1.687971 -0.08837,-2.580563 0.260707,-0.05744 0.525833,-0.10605 0.790959,-0.145819 z"
         fill="#ffffff"
         fill-opacity="1"
         id="path1814"
         style="stroke-width:0.0441877" />
    </g>
  </g>
</svg>
