<?xml version="1.0" encoding="UTF-8" standalone="no"?>
<svg
   xmlns:dc="http://purl.org/dc/elements/1.1/"
   xmlns:cc="http://creativecommons.org/ns#"
   xmlns:rdf="http://www.w3.org/1999/02/22-rdf-syntax-ns#"
   xmlns:svg="http://www.w3.org/2000/svg"
   xmlns="http://www.w3.org/2000/svg"
   xmlns:sodipodi="http://sodipodi.sourceforge.net/DTD/sodipodi-0.dtd"
   xmlns:inkscape="http://www.inkscape.org/namespaces/inkscape"
   width="22.624107mm"
   height="22.624107mm"
   viewBox="0 0 22.624107 22.624107"
   version="1.1"
   id="svg2303"
   inkscape:version="1.0.1 (3bc2e813f5, 2020-09-07)"
   sodipodi:docname="military.svg">
  <defs
     id="defs2297" />
  <sodipodi:namedview
     id="base"
     pagecolor="#ffffff"
     bordercolor="#666666"
     borderopacity="1.0"
     inkscape:pageopacity="0.0"
     inkscape:pageshadow="2"
     inkscape:zoom="0.35"
     inkscape:cx="-471.63441"
     inkscape:cy="-565.92016"
     inkscape:document-units="mm"
     inkscape:current-layer="layer1"
     inkscape:document-rotation="0"
     showgrid="false" />
  <metadata
     id="metadata2300">
    <rdf:RDF>
      <cc:Work
         rdf:about="">
        <dc:format>image/svg+xml</dc:format>
        <dc:type
           rdf:resource="http://purl.org/dc/dcmitype/StillImage" />
        <dc:title />
      </cc:Work>
    </rdf:RDF>
  </metadata>
  <g
     inkscape:label="Layer 1"
     inkscape:groupmode="layer"
     id="layer1"
     transform="translate(-230.61994,-297.89971)">
    <g
       id="g1628"
       transform="translate(222.90932,186.38184)">
      <rect
         fill="#000000"
         fill-opacity="1"
         height="22.624107"
         width="22.624107"
         rx="2.1210101"
         ry="2.1210101"
         id="rect186"
         x="7.7106166"
         y="111.51787"
         style="stroke-width:0.0441877" />
      <path
         d="m 8.5833237,112.15585 c 2.6308483,4.96184 6.2971903,8.94139 10.2639213,12.93454 l 0.160225,0.1657 0.0028,-0.003 c 0.964486,0.96904 1.946027,1.94086 2.934285,2.92744 -0.833203,0.65455 -1.722172,1.24609 -2.648523,1.7813 l 1.260764,1.26067 3.036447,-3.03645 c 1.870775,1.22118 3.370904,2.81237 4.599675,4.67551 l 1.240084,-1.23991 c -1.876652,-1.21485 -3.523528,-2.66037 -4.685223,-4.59004 l 3.046124,-3.04622 -1.260675,-1.26067 c -0.491146,0.96563 -1.078755,1.85654 -1.744089,2.67746 -1.937719,-1.93542 -3.820558,-3.79316 -5.749926,-5.54423 -0.0099,-0.009 -0.01909,-0.0186 -0.02899,-0.0276 -3.185669,-2.88868 -6.504563,-5.48868 -10.4268853,-7.67478 z m 20.8510753,0 c -3.669259,2.04501 -6.810298,4.45324 -9.808346,7.12112 l 1.008099,0.95277 2.510304,-2.51039 0.584161,0.5827 -2.493866,2.49396 1.086753,1.02453 c 2.730889,-2.95704 5.196474,-6.05018 7.112895,-9.66473 z m -14.561176,5.5635 8.862287,8.86096 c -0.192658,0.19633 -0.390619,0.38854 -0.592336,0.57586 l -8.854112,-8.85416 z m -3.388755,5.00558 -1.25935,1.26077 3.044843,3.0448 c -1.161695,1.92981 -2.807246,3.37656 -4.6838977,4.59141 l 1.2400397,1.23991 c 1.228728,-1.86314 2.728945,-3.45433 4.599676,-4.67551 l 3.036491,3.03645 1.260675,-1.26067 c -0.926263,-0.53525 -1.815231,-1.12679 -2.648479,-1.78134 0.789414,-0.78787 1.573525,-1.56571 2.348886,-2.34063 l -1.097755,-1.13363 -2.451092,2.45096 c -0.201717,-0.18727 -0.398308,-0.3809 -0.590967,-0.57718 l 2.467619,-2.46762 -1.083925,-1.12122 c -0.807751,0.78902 -1.617358,1.59341 -2.437305,2.41238 -0.665821,-0.82131 -1.254048,-1.71262 -1.745415,-2.67888 z"
         fill="#ffffff"
         fill-opacity="1"
         id="path188"
         style="stroke-width:0.0441877" />
    </g>
  </g>
</svg>
