<?xml version="1.0" encoding="UTF-8" standalone="no"?>
<svg
   xmlns:dc="http://purl.org/dc/elements/1.1/"
   xmlns:cc="http://creativecommons.org/ns#"
   xmlns:rdf="http://www.w3.org/1999/02/22-rdf-syntax-ns#"
   xmlns:svg="http://www.w3.org/2000/svg"
   xmlns="http://www.w3.org/2000/svg"
   xmlns:sodipodi="http://sodipodi.sourceforge.net/DTD/sodipodi-0.dtd"
   xmlns:inkscape="http://www.inkscape.org/namespaces/inkscape"
   width="22.624107mm"
   height="22.624107mm"
   viewBox="0 0 22.624107 22.624107"
   version="1.1"
   id="svg2303"
   inkscape:version="1.0.1 (3bc2e813f5, 2020-09-07)"
   sodipodi:docname="theology.svg">
  <defs
     id="defs2297" />
  <sodipodi:namedview
     id="base"
     pagecolor="#ffffff"
     bordercolor="#666666"
     borderopacity="1.0"
     inkscape:pageopacity="0.0"
     inkscape:pageshadow="2"
     inkscape:zoom="0.35"
     inkscape:cx="-63.062978"
     inkscape:cy="156.937"
     inkscape:document-units="mm"
     inkscape:current-layer="layer1"
     inkscape:document-rotation="0"
     showgrid="false" />
  <metadata
     id="metadata2300">
    <rdf:RDF>
      <cc:Work
         rdf:about="">
        <dc:format>image/svg+xml</dc:format>
        <dc:type
           rdf:resource="http://purl.org/dc/dcmitype/StillImage" />
        <dc:title />
      </cc:Work>
    </rdf:RDF>
  </metadata>
  <g
     inkscape:label="Layer 1"
     inkscape:groupmode="layer"
     id="layer1"
     transform="translate(-122.51875,-106.64375)">
    <g
       id="g1624"
       transform="translate(114.80813,30.813621)">
      <rect
         fill="#000000"
         fill-opacity="1"
         height="22.624107"
         width="22.624107"
         rx="2.1210101"
         ry="2.1210101"
         id="rect1075"
         x="7.7106166"
         y="75.830132"
         style="stroke-width:0.0441877" />
      <path
         d="m 19.278075,76.628293 c -2.297938,0 -4.183957,2.019378 -4.183957,4.558227 0,2.538805 1.886019,4.558183 4.184001,4.558183 2.298071,0 4.18546,-2.019378 4.18546,-4.558227 0,-2.538893 -1.887389,-4.558272 -4.18546,-4.558272 z m -2.597353,6.256626 c 0.586636,0.162169 1.16629,0.267159 1.739891,0.319035 v 0.82852 c -0.648411,-0.05347 -1.301947,-0.170123 -1.96083,-0.352176 z m 5.186532,0 0.216785,0.796704 c -0.638601,0.174011 -1.284979,0.290888 -1.938692,0.346653 V 83.20117 c 0.578196,-0.05404 1.151311,-0.160755 1.721995,-0.316207 z m -7.076883,0.693261 c -3.327688,2.244603 -4.8873372,5.532655 -5.138235,9.721296 h 0.00963 c -0.016217,0.07534 -0.024833,0.153155 -0.024833,0.233311 0,0.610144 0.494461,1.104693 1.104693,1.104693 0.0097,0 0.01927,-0.0011 0.02899,-0.0013 v 0.0097 l 7.928955,-8.9e-5 v -5.453028 c -1.130322,0.212984 -1.998169,1.258907 -1.998169,2.765885 v 0.41289 h -4.435208 v -0.82578 h 0.561979 c 0.161904,-1.554435 1.171946,-3.446553 2.003603,-4.478159 l 0.642048,0.51788 c -0.690124,0.856048 -1.617403,2.724791 -1.807499,3.960279 h 2.230154 c 0.178518,-1.859419 1.553993,-3.220179 3.235424,-3.220179 1.545686,0 3.033619,1.279588 3.265693,3.220223 h 2.463465 c -0.239144,-1.250733 -1.1723,-3.107279 -1.860038,-3.960323 l 0.64355,-0.517748 c 0.834485,1.035053 1.840109,2.93782 2.057468,4.478116 h 0.466755 v 0.825779 h -4.557034 l -0.01105,-0.401843 c -0.04507,-1.575557 -1.041505,-2.573227 -2.075497,-2.778302 v 5.454443 h 7.982819 v -0.0097 c 0.0097,2.66e-4 0.01927,0.0014 0.02908,0.0014 0.610232,0 1.104692,-0.494593 1.104692,-1.104692 0,-0.09244 -0.01175,-0.182054 -0.03314,-0.26791 -0.245949,-4.092003 -1.724293,-7.320225 -4.90625,-9.554179 -0.840716,1.69482 -2.500671,2.859829 -4.424295,2.859829 -1.973511,0 -3.669656,-1.225767 -4.487704,-2.992392 z m -0.876949,11.893387 0.405997,2.098916 h 9.746129 l 0.37427,-2.098916 z"
         fill="#ffffff"
         fill-opacity="1"
         id="path1077"
         style="stroke-width:0.0441877" />
    </g>
  </g>
</svg>
